<?xml version="1.0" encoding="UTF-8"?>
<svg id="_レイヤー_1" data-name="レイヤー_1" xmlns="http://www.w3.org/2000/svg" width="100" height="100" viewBox="0 0 100 100">
  <defs>
    <style>
      .cls-1 {
        stroke: #fff;
        stroke-width: .87px;
      }

      .cls-1, .cls-2 {
        fill: #00693e;
      }

      .cls-1, .cls-3 {
        stroke-miterlimit: 10;
      }

      .cls-3 {
        fill: none;
        stroke: #00693e;
        stroke-width: 1.74px;
      }

      .cls-4 {
        fill: #fff;
      }
    </style>
  </defs>
  <path class="cls-4" d="M50.11,8.85c-8.06,9.29-27.95,7.14-27.95,7.14v43.71c0,22.51,27.95,31.44,27.95,31.44,0,0,27.95-9.63,27.95-31.44V16s-19.89,2.15-27.95-7.14Z"/>
  <path class="cls-3" d="M50.11,8.85c-8.06,9.29-27.95,7.14-27.95,7.14v43.71c0,22.51,27.95,31.44,27.95,31.44,0,0,27.95-9.63,27.95-31.44V16s-19.89,2.15-27.95-7.14Z"/>
  <path class="cls-3" d="M28.79,59.7V22.82c6.78-.16,14.96-1.35,21.33-5.37,6.36,4.01,14.55,5.21,21.33,5.37v36.89"/>
  <polygon class="cls-2" points="21.44 68.44 17.37 44.42 1.5 48.27 10.11 58.93 7.17 72.3 21.44 68.44"/>
  <polygon class="cls-2" points="78.56 68.44 82.63 44.42 98.5 48.27 89.89 58.93 92.83 72.3 78.56 68.44"/>
  <path class="cls-1" d="M11.7,39.44l4.31,24.7s20.17-3.17,33.09-3.17,34.9,3.17,34.9,3.17l4.53-24.7s-14.28-3.17-38.41-3.17-38.41,3.17-38.41,3.17Z"/>
  <g>
    <path class="cls-2" d="M40.4,78.9c-.15,0-.77.01-1.09.01.23-.16.44-.87.24-1.57-.22-.74-.98-1.31-1.12-1.26-.14.05-.45.98-.23,1.74.15.49.45.85.72,1.02-.3-.06-.6-.13-.89-.22-.23-.07-.46-.15-.69-.23.23-.18.46-.89.27-1.62-.2-.8-.97-1.44-1.12-1.39-.15.04-.5,1-.3,1.81.1.39.3.71.5.93-.23-.11-.45-.22-.66-.34-.25-.15-.5-.31-.73-.49.23-.15.47-.65.51-1.31.04-.81-.34-1.71-.51-1.73-.16-.02-.7.67-.74,1.48-.02.41.06.81.18,1.1-.15-.13-.29-.27-.42-.42-.19-.2-.36-.43-.51-.65.19-.18.54-.57.67-1.14.19-.8.08-1.56-.06-1.58-.14-.02-.87.49-1.06,1.29-.05.21-.05.42-.03.61-.06-.13-.13-.26-.18-.4-.12-.32-.23-.65-.31-.99.24-.08.63-.26.88-.66.38-.6.47-1.51.36-1.56-.11-.06-.88.33-1.26.92-.08.12-.13.24-.16.37-.01-.08-.03-.16-.03-.24-.04-.32-.05-.65-.04-.98.24-.07.69-.23.97-.59.39-.5.45-1.23.36-1.29-.09-.06-.81.22-1.21.72-.02.02-.03.04-.04.06,0-.05.01-.1.02-.16.05-.32.11-.63.19-.94.19.04.64.09,1.01-.1.49-.26.8-.81.75-.9-.05-.08-.71-.13-1.2.13-.19.1-.33.25-.43.39.08-.25.17-.51.27-.75.05-.11.09-.23.14-.34.15.11.6.16,1.04-.01.51-.19.87-.7.83-.79-.04-.09-.67-.21-1.18-.01-.16.06-.29.15-.41.24.1-.18.21-.35.32-.52.17.08.64,0,.9-.28.28-.3.68-1.11.62-1.17-.07-.07-1.05.19-1.33.5-.26.28-.33.73-.25.89-.14.19-.27.38-.39.58,0-.18-.01-.41-.12-.63-.21-.42-.66-.78-.75-.73-.09.04-.16.68.05,1.09.15.3.5.46.68.52-.11.2-.21.4-.3.61-.03.06-.05.12-.07.18.01-.18,0-.41-.12-.6-.25-.4-.84-.65-.93-.6-.08.05-.1.68.15,1.07.19.31.6.43.77.46-.13.36-.24.73-.33,1.1-.02-.2-.08-.43-.24-.6-.34-.37-1.04-.54-1.12-.47-.08.07.02.73.36,1.11.27.29.74.35.92.36-.01.06-.03.13-.04.19-.05.3-.08.61-.1.92-.04-.22-.14-.49-.35-.68-.43-.38-1.24-.5-1.32-.42-.08.08.11.82.54,1.2.36.32.94.32,1.11.31,0,.27,0,.54.03.81-.06-.11-.14-.22-.25-.31-.45-.37-1.26-.46-1.34-.37s.15.82.6,1.19c.36.29.89.29,1.09.28.06.33.14.66.24.98-.15-.23-.39-.49-.73-.61-.64-.21-1.56.02-1.61.14-.05.12.52.82,1.16,1.04.53.18,1.13-.07,1.32-.17.02.06.04.12.06.18.11.29.25.56.41.82-.18-.21-.69-.45-1.28-.4-.71.06-1.37.61-1.36.74.01.14.76.59,1.47.54.71-.05,1.25-.52,1.23-.75,0-.01,0-.02,0-.03.23.38.5.73.8,1.05-.26-.05-.6-.05-.93.05-.68.21-1.2.9-1.16,1.03.04.13.86.42,1.53.2.54-.17.92-.58,1.02-.84.4.35.82.65,1.27.9.03.02.07.03.1.05-.2,0-.43.02-.66.1-.66.23-1.17.92-1.13,1.05.04.13.83.38,1.49.15.6-.21,1-.7,1.02-.95.49.2.99.37,1.5.48-.28,0-.59.06-.86.17-.64.27-1.22,1.13-1.16,1.28.05.15,1.01.36,1.65.08.64-.28,1.22-1.07,1.13-1.31,0,0,0,0,0,0,.63.14,1.78.29,2.01.17.28-.13-.21-.34-.63-.32Z"/>
    <path class="cls-2" d="M59.91,78.9c.15,0,.77.01,1.09.01-.23-.16-.44-.87-.24-1.57.22-.74.98-1.31,1.12-1.26.14.05.45.98.23,1.74-.15.49-.45.85-.72,1.02.3-.06.6-.13.89-.22.23-.07.46-.15.69-.23-.23-.18-.46-.89-.27-1.62.2-.8.97-1.44,1.12-1.39.15.04.5,1,.3,1.81-.1.39-.3.71-.5.93.23-.11.45-.22.66-.34.25-.15.5-.31.73-.49-.23-.15-.47-.65-.51-1.31-.04-.81.34-1.71.51-1.73.16-.02.7.67.74,1.48.02.41-.06.81-.18,1.1.15-.13.29-.27.42-.42.19-.2.36-.43.51-.65-.19-.18-.54-.57-.67-1.14-.19-.8-.08-1.56.06-1.58.14-.02.87.49,1.06,1.29.05.21.05.42.03.61.06-.13.13-.26.18-.4.12-.32.23-.65.31-.99-.24-.08-.63-.26-.88-.66-.38-.6-.47-1.51-.36-1.56.11-.06.88.33,1.26.92.08.12.13.24.16.37.01-.08.03-.16.03-.24.04-.32.05-.65.04-.98-.24-.07-.69-.23-.97-.59-.39-.5-.45-1.23-.36-1.29.09-.06.81.22,1.21.72.02.02.03.04.04.06,0-.05-.01-.1-.02-.16-.05-.32-.11-.63-.19-.94-.19.04-.64.09-1.01-.1-.49-.26-.8-.81-.75-.9.05-.08.71-.13,1.2.13.19.1.33.25.43.39-.08-.25-.17-.51-.27-.75-.05-.11-.09-.23-.14-.34-.15.11-.6.16-1.04-.01-.51-.19-.87-.7-.83-.79.04-.09.67-.21,1.18-.01.16.06.29.15.41.24-.1-.18-.21-.35-.32-.52-.17.08-.64,0-.9-.28-.28-.3-.68-1.11-.62-1.17.07-.07,1.05.19,1.33.5.26.28.33.73.25.89.14.19.27.38.39.58,0-.18.01-.41.12-.63.21-.42.66-.78.75-.73.09.04.16.68-.05,1.09-.15.3-.5.46-.68.52.11.2.21.4.3.61.03.06.05.12.07.18-.01-.18,0-.41.12-.6.25-.4.84-.65.93-.6.08.05.1.68-.15,1.07-.19.31-.6.43-.77.46.13.36.24.73.33,1.1.02-.2.08-.43.24-.6.34-.37,1.04-.54,1.12-.47.08.07-.02.73-.36,1.11-.27.29-.74.35-.92.36.01.06.03.13.04.19.05.3.08.61.1.92.04-.22.14-.49.35-.68.43-.38,1.24-.5,1.32-.42.08.08-.11.82-.54,1.2-.36.32-.94.32-1.11.31,0,.27,0,.54-.03.81.06-.11.14-.22.25-.31.45-.37,1.26-.46,1.34-.37s-.15.82-.6,1.19c-.36.29-.89.29-1.09.28-.06.33-.14.66-.24.98.15-.23.39-.49.73-.61.64-.21,1.56.02,1.61.14.05.12-.52.82-1.16,1.04-.53.18-1.13-.07-1.32-.17-.02.06-.04.12-.06.18-.11.29-.25.56-.41.82.18-.21.69-.45,1.28-.4.71.06,1.37.61,1.36.74-.01.14-.76.59-1.47.54-.71-.05-1.25-.52-1.23-.75,0-.01,0-.02,0-.03-.23.38-.5.73-.8,1.05.26-.05.6-.05.93.05.68.21,1.2.9,1.16,1.03-.04.13-.86.42-1.53.2-.54-.17-.92-.58-1.02-.84-.4.35-.82.65-1.27.9-.03.02-.07.03-.1.05.2,0,.43.02.66.1.66.23,1.17.92,1.13,1.05-.04.13-.83.38-1.49.15-.6-.21-1-.7-1.02-.95-.49.2-.99.37-1.5.48.28,0,.59.06.86.17.64.27,1.22,1.13,1.16,1.28-.05.15-1.01.36-1.65.08-.64-.28-1.22-1.07-1.13-1.31,0,0,0,0,0,0-.63.14-1.78.29-2.01.17-.28-.13.21-.34.63-.32Z"/>
  </g>
  <g>
    <path class="cls-2" d="M45.91,66.59s0,.06-.03.09c-.02.03-.05.04-.08.04-.06,0-.12,0-.17,0-.06,0-.12,0-.18,0-.05,0-.08.02-.09.06-.01.04-.02.08-.02.12,0,.29,0,.58,0,.87,0,.29,0,.58,0,.88,0,.41,0,.83,0,1.24,0,.41,0,.83,0,1.24,0,.04,0,.07.02.12.01.04.04.06.09.06.06,0,.12,0,.18,0,.06,0,.12,0,.17,0,.04,0,.06.02.08.05s.02.06.02.1c0,.07-.04.1-.11.1-.04,0-.07,0-.11,0-.04,0-.07,0-.11,0-.07,0-.14-.01-.21-.01h-.68c-.16,0-.32,0-.48.01-.05,0-.09,0-.14,0-.05,0-.1,0-.15,0-.05,0-.08-.01-.09-.04-.02-.03-.02-.06-.02-.1s.01-.06.04-.08c.03-.02.06-.03.09-.03.05,0,.1,0,.14,0,.04,0,.09,0,.13,0,.07,0,.12-.01.14-.04.03-.03.04-.07.04-.14v-2.13h-2.25v2.14c0,.07.01.11.04.14.03.02.07.04.14.04.05,0,.09,0,.14,0,.05,0,.09,0,.14,0,.04,0,.07,0,.1.02.03.02.04.04.04.09,0,.09-.04.13-.12.13-.17,0-.34,0-.5-.02-.17-.01-.33-.02-.5-.02h-.25c-.08,0-.17,0-.25,0-.06,0-.12.01-.17.02-.06,0-.12.01-.17.01-.03,0-.06-.01-.07-.04s-.02-.06-.02-.08,0-.05.03-.08c.02-.03.04-.04.07-.04.06,0,.12,0,.17,0s.12,0,.17,0c.05,0,.08-.02.1-.06.01-.04.02-.08.02-.12v-4.24s0-.07-.02-.12c-.01-.04-.05-.06-.1-.06-.06,0-.12,0-.17,0s-.12,0-.17,0c-.07,0-.11-.04-.11-.12,0-.03,0-.06.03-.09.02-.03.05-.04.08-.04.12,0,.24,0,.35.01.12,0,.23.01.35.01.19,0,.38,0,.56-.01.19,0,.38-.01.56-.01.09,0,.13.04.13.13,0,.06-.02.09-.07.1-.05,0-.09.01-.13.01-.03,0-.06,0-.1,0-.03,0-.07,0-.1,0-.06,0-.1.02-.13.05s-.04.08-.04.14v1.85h2.25v-1.88c0-.07-.01-.11-.04-.14-.03-.02-.07-.04-.14-.04-.05,0-.09,0-.13,0-.04,0-.09,0-.14,0-.03,0-.06-.01-.09-.03s-.04-.05-.04-.08c0-.09.04-.13.13-.13.05,0,.11,0,.16,0,.05,0,.11,0,.16.01.1,0,.21,0,.31.01.1,0,.21,0,.31,0,.15,0,.3,0,.45-.02.15-.01.3-.02.46-.02.04,0,.06.01.08.03.02.02.03.05.03.08Z"/>
    <path class="cls-2" d="M48.49,66.6c0,.08-.04.12-.11.12-.05,0-.11,0-.17,0-.06,0-.11,0-.17,0-.05,0-.08.02-.1.06-.02.04-.03.08-.03.12,0,.16,0,.32,0,.48,0,.16,0,.32,0,.48,0,.5,0,1,0,1.51,0,.5,0,1.01,0,1.51,0,.03,0,.08,0,.15,0,.07,0,.13.02.19.02.06.05.09.1.09.06,0,.12,0,.18,0,.06,0,.12,0,.18,0,.03,0,.05.01.07.04.01.02.02.05.02.09s-.01.06-.03.09c-.02.03-.05.04-.09.04-.16,0-.31,0-.46,0-.15,0-.31,0-.46,0s-.31,0-.47,0c-.16,0-.31,0-.47,0-.05,0-.08,0-.09-.03s-.02-.05-.02-.09c0-.04,0-.07.02-.09.02-.03.04-.04.08-.04.05,0,.1,0,.15,0,.05,0,.1,0,.14,0,.06,0,.11-.02.13-.06.02-.04.04-.09.04-.15,0-.06,0-.11,0-.15v-3.93s0-.1,0-.18c0-.08-.04-.12-.1-.13h-.08s-.09,0-.13,0c-.04,0-.09,0-.13,0-.09,0-.13-.04-.13-.13,0-.03.01-.06.03-.08.02-.02.05-.03.08-.03.2,0,.39,0,.58.01.19,0,.39.01.59.01.12,0,.24,0,.36-.01.12,0,.24-.01.36-.01.04,0,.06.01.08.04.01.03.02.06.02.09Z"/>
    <path class="cls-2" d="M54.16,69.4s0,.07-.02.1c-.02.03-.05.05-.09.05h-.35v1.42c-.16.05-.32.11-.47.18s-.31.14-.47.21c-.16.07-.32.12-.5.14-.18.02-.36.03-.53.03-.15,0-.31-.02-.49-.05-.17-.03-.34-.08-.51-.14-.16-.06-.31-.14-.43-.22-.33-.24-.58-.55-.73-.92-.15-.37-.23-.76-.23-1.16,0-.36.06-.7.17-1.01.11-.31.27-.59.49-.83.21-.24.47-.42.77-.56.3-.13.64-.2,1.01-.2.3,0,.59.05.88.14.04.01.1.04.19.07.08.03.17.06.25.09.08.03.14.04.17.04.07,0,.12-.02.14-.07.03-.05.05-.1.08-.15s.06-.08.11-.08c.03,0,.05,0,.08.02s.04.04.04.07c0,.21,0,.42.01.62,0,.21.01.41.01.62,0,.06-.02.12-.07.16-.04.04-.1.06-.16.06-.08,0-.13-.02-.16-.05-.03-.03-.06-.09-.08-.15-.11-.35-.29-.63-.53-.85-.24-.21-.55-.32-.93-.32-.18,0-.35.04-.5.13s-.28.2-.39.34c-.11.14-.21.29-.28.45-.08.16-.14.32-.18.48-.04.15-.07.31-.09.48-.02.16-.03.33-.03.49s0,.32.03.48c.02.16.05.32.1.47.06.21.15.41.27.6.12.19.27.35.45.47.18.12.39.18.63.18.09,0,.19-.01.3-.03.11-.02.22-.06.32-.1.1-.05.19-.11.26-.18.07-.08.1-.17.1-.28v-.9s-.01-.07-.03-.11c-.02-.04-.05-.06-.09-.06-.06,0-.13,0-.2.01-.07,0-.13.01-.2.01-.04,0-.07-.02-.09-.07-.03-.04-.04-.08-.04-.11s.01-.06.04-.08c.03-.02.06-.03.09-.03.06,0,.13,0,.2,0,.07,0,.13,0,.2,0,.16,0,.31,0,.46,0,.15,0,.31,0,.46-.01.08,0,.16-.01.25-.02.08,0,.16-.01.25-.01.04,0,.06.01.08.04s.02.06.02.09Z"/>
    <path class="cls-2" d="M59.81,66.59s0,.06-.03.09c-.02.03-.05.04-.08.04-.06,0-.12,0-.17,0-.06,0-.12,0-.18,0-.05,0-.08.02-.09.06-.01.04-.02.08-.02.12,0,.29,0,.58,0,.87,0,.29,0,.58,0,.88,0,.41,0,.83,0,1.24,0,.41,0,.83,0,1.24,0,.04,0,.07.02.12.01.04.04.06.09.06.06,0,.12,0,.18,0,.06,0,.12,0,.17,0,.04,0,.06.02.08.05s.02.06.02.1c0,.07-.04.1-.11.1-.04,0-.07,0-.11,0-.04,0-.07,0-.11,0-.07,0-.14-.01-.21-.01h-.68c-.16,0-.32,0-.48.01-.05,0-.09,0-.14,0-.05,0-.1,0-.15,0-.05,0-.08-.01-.09-.04-.02-.03-.02-.06-.02-.1s.01-.06.04-.08c.03-.02.06-.03.09-.03.05,0,.1,0,.14,0,.04,0,.09,0,.13,0,.07,0,.12-.01.14-.04.03-.03.04-.07.04-.14v-2.13h-2.25v2.14c0,.07.01.11.04.14.03.02.07.04.14.04.05,0,.09,0,.14,0,.05,0,.09,0,.14,0,.04,0,.07,0,.1.02.03.02.04.04.04.09,0,.09-.04.13-.12.13-.17,0-.34,0-.5-.02-.17-.01-.33-.02-.5-.02h-.25c-.08,0-.17,0-.25,0-.06,0-.12.01-.17.02-.06,0-.12.01-.17.01-.03,0-.06-.01-.07-.04s-.02-.06-.02-.08,0-.05.03-.08c.02-.03.04-.04.07-.04.06,0,.12,0,.17,0s.12,0,.17,0c.05,0,.08-.02.1-.06.01-.04.02-.08.02-.12v-4.24s0-.07-.02-.12c-.01-.04-.05-.06-.1-.06-.06,0-.12,0-.17,0s-.12,0-.17,0c-.07,0-.11-.04-.11-.12,0-.03,0-.06.03-.09.02-.03.05-.04.08-.04.12,0,.24,0,.35.01.12,0,.23.01.35.01.19,0,.38,0,.56-.01.19,0,.38-.01.56-.01.09,0,.13.04.13.13,0,.06-.02.09-.07.1-.05,0-.09.01-.13.01-.03,0-.06,0-.1,0-.03,0-.07,0-.1,0-.06,0-.1.02-.13.05s-.04.08-.04.14v1.85h2.25v-1.88c0-.07-.01-.11-.04-.14-.03-.02-.07-.04-.14-.04-.05,0-.09,0-.13,0-.04,0-.09,0-.14,0-.03,0-.06-.01-.09-.03s-.04-.05-.04-.08c0-.09.04-.13.13-.13.05,0,.11,0,.16,0,.05,0,.11,0,.16.01.1,0,.21,0,.31.01.1,0,.21,0,.31,0,.15,0,.3,0,.45-.02.15-.01.3-.02.46-.02.04,0,.06.01.08.03.02.02.03.05.03.08Z"/>
  </g>
  <g>
    <path class="cls-2" d="M43.09,75.47c0,.17-.04.32-.12.43-.08.11-.18.2-.31.27-.13.07-.26.11-.41.14-.15.03-.29.04-.44.04-.11,0-.22-.02-.32-.05-.1-.03-.2-.07-.31-.1-.05-.02-.1-.03-.15-.03-.05,0-.1,0-.15,0,0-.07-.02-.14-.03-.21s-.02-.14-.03-.21c0-.05-.01-.1-.02-.15,0-.05-.01-.1-.01-.14,0-.04,0-.08.02-.1.02-.03.05-.04.09-.04.04,0,.07,0,.1.02.02.02.04.04.05.08.02.05.04.11.05.16s.03.11.05.17c.05.14.13.25.25.33.11.08.25.12.4.12.21,0,.37-.06.48-.18.11-.12.17-.28.17-.49,0-.12-.03-.22-.08-.3-.05-.08-.12-.15-.2-.2s-.17-.11-.26-.16c-.09-.05-.17-.09-.26-.13-.09-.04-.18-.08-.26-.13-.1-.05-.19-.11-.28-.19-.09-.08-.17-.16-.22-.26-.06-.1-.09-.21-.09-.32,0-.2.05-.36.15-.49.1-.13.24-.22.4-.29s.33-.09.51-.09c.11,0,.22.02.33.05.11.03.21.07.31.11.03.01.06.02.09.03.03,0,.06,0,.09,0,.02,0,.05,0,.07,0,.02,0,.04,0,.06,0,0,.1.02.19.03.29l.04.29s0,.03,0,.05c0,.02,0,.03,0,.05,0,.04,0,.08-.03.11-.02.03-.05.05-.1.05-.04,0-.07,0-.08-.03-.02-.02-.03-.04-.05-.08-.04-.09-.07-.18-.1-.27s-.08-.17-.14-.25c-.07-.08-.15-.15-.25-.19s-.2-.06-.3-.06-.19.03-.25.08c-.07.06-.12.13-.15.21-.03.09-.05.18-.05.27,0,.14.04.25.11.33.08.08.17.15.28.22.06.03.13.06.19.1s.13.06.19.09c.15.07.29.15.44.25s.26.21.35.34c.09.13.14.29.14.47Z"/>
    <path class="cls-2" d="M46.4,75.54s0,.04-.02.06-.03.05-.03.06c-.04.07-.1.14-.18.21-.08.07-.15.14-.22.18-.14.1-.29.16-.44.19s-.32.04-.48.04c-.32,0-.6-.07-.83-.2-.23-.14-.4-.32-.52-.57-.12-.24-.18-.52-.18-.84s.06-.6.17-.85c.12-.25.29-.45.52-.6.23-.15.51-.23.84-.23.15,0,.28.02.38.05.1.04.22.08.35.12.06.02.12.04.19.05s.13.02.19.02c0,.07,0,.13.01.2,0,.07.01.14.02.2,0,.06.02.11.03.17s.02.12.02.18-.02.1-.06.12c-.04.03-.09.04-.14.04-.08,0-.14-.03-.17-.1,0-.02-.02-.05-.02-.08,0-.03,0-.05-.01-.07-.02-.1-.06-.2-.11-.31-.05-.11-.11-.2-.19-.27-.06-.05-.13-.1-.23-.14-.1-.04-.19-.06-.26-.06s-.14.02-.21.05c-.06.03-.13.07-.19.12-.13.11-.23.23-.3.38-.07.15-.13.31-.16.48-.03.17-.04.33-.04.49,0,.11,0,.21.02.32.01.11.03.21.06.31.04.14.1.27.18.4.08.12.18.22.29.3.12.08.25.11.41.11.22,0,.42-.05.6-.16.18-.11.33-.25.45-.43.02-.03.04-.06.06-.08.02-.02.05-.03.09-.03s.07.01.09.04c.02.03.03.06.03.09Z"/>
    <path class="cls-2" d="M50.07,73.1s0,.04-.02.06c-.01.02-.03.03-.05.03-.04,0-.08,0-.11,0-.04,0-.08,0-.12,0-.03,0-.05.01-.06.04,0,.03-.01.05-.01.08,0,.19,0,.38,0,.57s0,.38,0,.57c0,.27,0,.54,0,.81,0,.27,0,.54,0,.81,0,.02,0,.05.01.08,0,.03.03.04.06.04.04,0,.08,0,.12,0s.08,0,.11,0c.02,0,.04.01.05.03,0,.02.01.04.01.06,0,.04-.02.07-.07.07-.02,0-.05,0-.07,0-.02,0-.05,0-.07,0-.04,0-.09,0-.13,0h-.44c-.1,0-.21,0-.31,0-.03,0-.06,0-.09,0s-.06,0-.1,0c-.03,0-.05,0-.06-.03-.01-.02-.02-.04-.02-.06s0-.04.03-.05c.02-.01.04-.02.06-.02.03,0,.06,0,.09,0s.06,0,.09,0c.04,0,.08,0,.09-.02.02-.02.02-.05.02-.09v-1.39h-1.47v1.4s0,.07.03.09c.02.02.05.02.09.02.03,0,.06,0,.09,0s.06,0,.09,0c.02,0,.04,0,.06.02.02.01.03.03.03.06,0,.06-.03.09-.08.09-.11,0-.22,0-.33-.01s-.22-.01-.32-.01h-.16c-.06,0-.11,0-.16,0-.04,0-.08,0-.11.01-.04,0-.08,0-.11,0-.02,0-.04,0-.05-.03-.01-.02-.02-.04-.02-.05,0-.02,0-.03.02-.05.01-.02.03-.03.04-.03.04,0,.08,0,.11,0,.04,0,.08,0,.11,0,.03,0,.05-.01.06-.04,0-.03.01-.05.01-.08v-2.77s0-.05-.01-.08c0-.03-.03-.04-.06-.04-.04,0-.08,0-.11,0-.04,0-.08,0-.11,0-.05,0-.07-.03-.07-.08,0-.02,0-.04.02-.06.01-.02.03-.03.05-.03.08,0,.15,0,.23,0s.15,0,.23,0c.12,0,.24,0,.37,0,.12,0,.25,0,.37,0,.06,0,.09.03.09.09,0,.04-.02.06-.05.07-.03,0-.06,0-.09,0-.02,0-.04,0-.06,0s-.04,0-.07,0c-.04,0-.07.01-.09.04-.02.02-.03.05-.03.09v1.21h1.47v-1.23s0-.07-.02-.09c-.02-.02-.05-.02-.09-.02-.03,0-.06,0-.09,0-.03,0-.06,0-.09,0-.02,0-.04,0-.06-.02-.02-.02-.03-.03-.03-.05,0-.06.03-.09.08-.09.04,0,.07,0,.11,0,.04,0,.07,0,.11,0,.07,0,.14,0,.21,0,.07,0,.14,0,.21,0,.1,0,.2,0,.3-.01.1,0,.2-.01.3-.01.02,0,.04,0,.05.02.01.02.02.03.02.05Z"/>
    <path class="cls-2" d="M53.61,74.66c0,.34-.06.63-.18.88-.12.25-.3.44-.53.58-.23.14-.52.2-.87.2s-.63-.07-.86-.21c-.24-.14-.41-.33-.54-.58s-.18-.54-.18-.87c0-.23.04-.45.11-.65.07-.2.18-.38.32-.54s.3-.28.5-.36c.19-.09.41-.13.65-.13.34,0,.63.07.86.21.24.14.41.34.53.59s.18.54.18.87ZM52.96,74.67c0-.11,0-.24-.03-.38-.02-.14-.05-.28-.09-.41-.04-.14-.1-.26-.17-.38-.07-.11-.16-.21-.27-.28s-.23-.1-.38-.1-.27.03-.38.1c-.11.07-.2.16-.27.28-.07.11-.13.24-.18.38s-.08.27-.1.41c-.02.14-.03.26-.03.38s.01.24.03.37.05.27.1.41.1.26.18.37c.07.11.16.2.27.27.11.07.23.1.37.1s.28-.03.38-.1c.11-.07.19-.16.26-.27.07-.11.13-.23.17-.37.04-.13.07-.27.09-.41.02-.14.03-.26.03-.38Z"/>
    <path class="cls-2" d="M57.27,74.66c0,.34-.06.63-.18.88-.12.25-.3.44-.53.58-.23.14-.52.2-.87.2s-.63-.07-.86-.21c-.24-.14-.41-.33-.54-.58s-.18-.54-.18-.87c0-.23.04-.45.11-.65.07-.2.18-.38.32-.54s.3-.28.5-.36c.19-.09.41-.13.65-.13.34,0,.63.07.86.21.24.14.41.34.53.59s.18.54.18.87ZM56.62,74.67c0-.11,0-.24-.03-.38-.02-.14-.05-.28-.09-.41-.04-.14-.1-.26-.17-.38-.07-.11-.16-.21-.27-.28s-.23-.1-.38-.1-.27.03-.38.1c-.11.07-.2.16-.27.28-.07.11-.13.24-.18.38s-.08.27-.1.41c-.02.14-.03.26-.03.38s.01.24.03.37.05.27.1.41.1.26.18.37c.07.11.16.2.27.27.11.07.23.1.37.1s.28-.03.38-.1c.11-.07.19-.16.26-.27.07-.11.13-.23.17-.37.04-.13.07-.27.09-.41.02-.14.03-.26.03-.38Z"/>
    <path class="cls-2" d="M60.44,75.27s0,.1,0,.14c0,.05-.01.1-.02.15-.01.1-.03.21-.04.31-.01.1-.03.21-.04.31,0,.03,0,.06-.02.08-.01.02-.04.03-.07.04-.03,0-.06,0-.08,0-.04,0-.07,0-.11,0-.04,0-.07,0-.11,0-.19,0-.37,0-.56,0h-1.27c-.06,0-.13,0-.19,0-.03,0-.07,0-.1,0-.03,0-.07,0-.1,0-.03,0-.05,0-.07-.02-.02-.02-.03-.04-.03-.06,0-.03,0-.05.03-.07.02-.02.04-.02.06-.02s.05,0,.07,0c.03,0,.05,0,.07,0,.05,0,.08,0,.11-.02.03-.01.04-.05.04-.1v-1.39c0-.46,0-.92,0-1.38,0-.04,0-.06-.02-.07-.01-.01-.04-.02-.07-.02s-.07,0-.1,0-.07,0-.1,0c-.02,0-.04,0-.06-.02-.02-.02-.03-.03-.03-.06,0-.06.03-.09.09-.09.03,0,.07,0,.1,0s.07,0,.11,0c.07,0,.14,0,.21,0,.07,0,.14,0,.21,0h.18c.06,0,.12,0,.17,0,.04,0,.08,0,.12-.01.04,0,.08,0,.12,0,.05,0,.07.03.07.08,0,.02,0,.04-.02.06-.01.02-.03.03-.05.03-.04,0-.08,0-.11,0s-.08,0-.12,0c-.03,0-.05,0-.06.02,0,.02-.01.04-.01.07,0,.11,0,.22,0,.33,0,.11,0,.22,0,.33,0,.35,0,.69,0,1.04s0,.69,0,1.04c0,.03,0,.06.02.09s.04.05.07.05c.04,0,.08.01.12.01h.12c.22,0,.42-.02.58-.07.16-.04.3-.13.42-.25s.21-.3.28-.52c0-.03.02-.05.04-.07s.04-.03.07-.03c.02,0,.03,0,.05.02.02.01.02.03.02.05Z"/>
  </g>
  <g>
    <path class="cls-4" d="M32.24,42.48c.32.07.5.18.51.31.02.29-.33.49-1.02.63l-.2,1.91,6.73-.52.76-.98,1.67.94.03.39-9.24.72-.3,2.91,6.36-.5.53-.96c.96.51,1.44.77,1.44.77.25.16.39.28.4.4.01.16-.1.26-.31.34l-.42.17c0,1.21-.02,2.28-.02,3.2l1.63-.13.89-1.28,1.93,1.21.03.37-4.5.35c-.08,1.53-.19,2.63-.33,3.3-.33,1.22-.78,2.05-1.29,2.52-.42.4-.93.64-1.51.68-.19.02-.3-.09-.32-.31-.04-.47-.23-.72-.55-.76,0,0-.53-.08-1.59-.19l-.02-.31,3.28-.26c.44-.62.73-1.58.91-2.88.04-.49.07-1.06.1-1.7l-11.3.88-.27-.51,11.59-.9c.04-1.02.04-2.19.02-3.51l-6.74.53-.21,2.01-1.36.11,1.04-9.22,1.66.28Z"/>
    <path class="cls-4" d="M59.45,42.27l1.98.15.42-.65c.74.51,1.11.75,1.11.75.22.15.35.28.34.36,0,.12-.11.21-.31.23l-.42.16-1.1,14.05c-.07.38-.33.72-.78.97-.44.16-.82.23-1.13.2-.16-.01-.23-.12-.23-.31-.01-.35-.15-.58-.42-.64l-.8-.3.03-.39,2.13.17.42-5.37-2.13-.17c-.17,1.16-.38,2.17-.63,3.03-.45,1.47-1.16,2.84-2.14,4.14l-.21-.33c.55-1.05.98-2.26,1.32-3.68.34-1.38.61-3.29.8-5.75l.57-7.35,1.15.69ZM60.75,51.12l.3-3.86-2.05-.16-.15,1.9c-.05.7-.13,1.35-.19,1.95l2.09.16ZM61.09,46.74l.29-3.78-2.05-.16-.29,3.78,2.05.16ZM71.58,53.45c.2.17.31.3.3.37-.01.16-.14.26-.34.31l-.38.11c-.34,1.88-.65,3.13-.97,3.71-.36.6-.74,1.02-1.17,1.22-.34.17-.74.25-1.17.22-.14-.01-.19-.11-.17-.29.03-.39-.07-.63-.3-.69,0,0-.38-.13-1.1-.38l.03-.37,2.29.18c.33-.25.62-.67.84-1.28.21-.65.39-1.55.6-2.72l-3.08-.24c-.38,1.16-.85,2.1-1.41,2.81-.95,1.19-2.34,1.98-4.12,2.39l-.05-.32c1.48-.53,2.65-1.45,3.5-2.83.36-.58.67-1.29.93-2.15l-2.5-.19-.25-.55,2.89.22c.2-.76.36-1.61.49-2.55,1.11.28,1.66.4,1.66.4.13.05.2.15.19.27-.01.15-.27.25-.79.33-.12.6-.25,1.15-.38,1.65l2.67.21.58-.71c.79.59,1.2.87,1.2.87ZM73.42,46.94l-.03.37-4.42-.34c.31.96.7,1.77,1.13,2.45l1.51.12.92-1.06,1.49,1.4-.03.39-3.51-.27s.03.08.05.08c.71.93,1.83,1.84,3.34,2.7l-.02.29c-.63.07-1.06.29-1.28.66-1.17-.99-2.03-1.97-2.56-2.93-.17-.29-.31-.57-.44-.87l-3.97-.31c-.96,1.31-2.06,2.39-3.31,3.23l-.2-.39c1-.86,1.86-1.84,2.57-2.92l-2.02-.16-.19-.56,2.54.2c.18-.3.34-.6.5-.9.21-.41.4-.89.59-1.38l-2.93-.23-.17-.54,3.28.26c.39-1.2.71-2.62,1-4.27l1.52.49c.21.09.32.2.31.28,0,.12-.25.2-.7.24-.37,1.3-.75,2.42-1.1,3.35l3.57.28,1-1.07,1.57,1.43ZM65.27,43.85c.26.37.39.69.37.96-.04.56-.24.82-.59.79-.35-.03-.56-.28-.64-.75-.16-.99-.45-1.75-.88-2.27l.25-.21c.62.52,1.11,1,1.48,1.48ZM68.56,46.93l-1.47-.11c-.39.98-.78,1.73-1.13,2.27l3.39.26c-.31-.77-.58-1.57-.79-2.42ZM72.09,43.7c.17.13.25.23.25.33-.01.16-.27.21-.77.17l-2.28,2.03-.3-.18,1.93-3.18,1.18.83Z"/>
  </g>
  <path class="cls-2" d="M64.33,32.95c-.7.17-1.5.44-2.53.45-.67,0-2.59-1.2-4.08-1.26-1.1-.11-2.45.37-2.45.37,0,0,2.55-2.44,1.82-4.89-.03-.09-.17-.09-.18.01-.12.68-.44,1.77-.93,1.68-.27-.05,1.44-4.01-.88-5.89-.06-.05-.14.01-.12.08.18.5.57,1.47.29,1.92-.38.61-.75-3.9-5.16-3.9s-4.77,4.51-5.16,3.9c-.28-.45.1-1.42.29-1.92.03-.07-.06-.13-.12-.08-2.32,1.88-.6,5.83-.88,5.89-.49.1-.81-1-.93-1.68-.02-.1-.16-.11-.18-.01-.73,2.45,1.82,4.89,1.82,4.89,0,0-1.35-.48-2.45-.37-1.48.07-3.4,1.27-4.08,1.26-1.03-.01-1.84-.28-2.53-.45-.09-.02-.14.1-.06.14.64.41,2.03,1.14,3.48,1.14,2.15,0,2.68-1.31,4.33-1.31,1.32,0,1.71.15,1.87.18.03,0,.06.02.09.04.24.15,1.87,1.2,4.52,1.2s4.28-1.05,4.52-1.2c.03-.02.05-.03.09-.04.15-.03.54-.18,1.87-.18,1.65,0,2.18,1.31,4.33,1.31,1.45,0,2.84-.73,3.48-1.14.08-.05.03-.16-.06-.14ZM53.89,26.95c-.24-.25-.48-.64-1.01-.83-.12-.04-.19.09-.11.19,1.21,1.44,1.29,4.65-1.18,5.09-.14,0-.74.11-.79-.57-.04-.52.67-.78.67-.78l-1.36-1.25-1.36,1.25s.71.26.67.78c-.05.67-.65.57-.79.57-2.46-.44-2.39-3.65-1.18-5.09.08-.09,0-.23-.11-.19-.53.2-.77.59-1.01.83-.11.11-.28.06-.26-.12.47-3.68,3.25-4.14,4.03-4.14,1.16,0,3.73.53,4.03,4.14.02.18-.15.23-.26.12Z"/>
</svg>