<?xml version="1.0" encoding="UTF-8"?>
<svg id="_レイヤー_2" data-name="レイヤー_2" xmlns="http://www.w3.org/2000/svg" width="333.33" height="100" viewBox="0 0 333.33 100">
  <defs>
    <style>
      .cls-1, .cls-2 {
        fill: #00693e;
      }

      .cls-3 {
        fill: none;
        stroke: #00693e;
        stroke-width: 2px;
      }

      .cls-3, .cls-2 {
        stroke-miterlimit: 10;
      }

      .cls-4 {
        fill: #fff;
      }

      .cls-5 {
        fill: #2c4f28;
      }

      .cls-2 {
        stroke: #fff;
      }
    </style>
  </defs>
  <g>
    <path class="cls-3" d="M65.2,2.56c-9.29,10.7-32.2,8.23-32.2,8.23v50.34c0,25.93,32.2,36.22,32.2,36.22,0,0,32.2-11.09,32.2-36.22V10.79s-22.91,2.48-32.2-8.23Z"/>
    <path class="cls-3" d="M40.64,61.13V18.64c7.8-.18,17.23-1.56,24.57-6.18,7.33,4.62,16.76,6,24.57,6.18v42.49"/>
    <polygon class="cls-1" points="32.18 71.2 27.49 43.53 9.21 47.96 19.13 60.23 15.74 75.63 32.18 71.2"/>
    <polygon class="cls-1" points="97.96 71.2 102.66 43.53 120.94 47.96 111.02 60.23 114.41 75.63 97.96 71.2"/>
    <path class="cls-2" d="M20.96,37.78l4.96,28.45s23.23-3.65,38.11-3.65,40.2,3.65,40.2,3.65l5.22-28.45s-16.45-3.65-44.25-3.65-44.25,3.65-44.25,3.65Z"/>
    <g>
      <path class="cls-1" d="M54.02,83.24c-.18,0-.89.01-1.25.02.26-.18.51-1,.27-1.8-.25-.86-1.13-1.51-1.29-1.46-.17.06-.52,1.13-.26,2,.17.57.52.98.83,1.17-.35-.07-.69-.16-1.02-.26-.27-.08-.53-.17-.8-.27.27-.21.53-1.03.31-1.87-.23-.92-1.11-1.66-1.29-1.61-.18.05-.58,1.16-.34,2.09.12.45.34.82.58,1.07-.26-.12-.52-.25-.77-.39-.29-.17-.57-.36-.84-.56.27-.17.55-.75.59-1.51.05-.93-.39-1.97-.58-2-.19-.02-.81.78-.85,1.71-.02.47.07.93.2,1.27-.17-.15-.33-.31-.48-.48-.22-.23-.41-.49-.59-.75.22-.21.62-.65.78-1.31.22-.93.09-1.8-.07-1.82-.16-.02-1,.57-1.22,1.49-.06.24-.06.48-.03.7-.07-.15-.15-.3-.21-.46-.14-.37-.26-.75-.36-1.14.27-.09.73-.3,1.02-.76.44-.69.54-1.74.42-1.8-.12-.07-1.01.38-1.45,1.06-.09.14-.15.28-.19.42-.01-.09-.03-.18-.04-.27-.04-.37-.06-.75-.05-1.12.28-.08.8-.27,1.12-.68.45-.58.52-1.42.41-1.48-.1-.07-.94.25-1.39.83-.02.02-.03.05-.05.07,0-.06.01-.12.02-.18.05-.36.13-.72.22-1.08.22.04.74.1,1.17-.12.56-.3.92-.94.86-1.03-.06-.1-.81-.15-1.38.15-.22.12-.38.29-.5.45.09-.29.19-.58.31-.87.05-.13.11-.26.17-.39.18.12.69.18,1.2-.01.58-.22,1-.81.96-.91-.04-.1-.78-.24-1.36-.01-.18.07-.34.17-.47.27.11-.21.24-.41.37-.6.19.1.73,0,1.03-.33.32-.35.79-1.28.71-1.35-.08-.08-1.21.22-1.53.58-.29.32-.38.84-.28,1.03-.16.21-.31.44-.45.67,0-.2-.01-.47-.14-.72-.24-.48-.76-.89-.86-.84-.1.05-.19.78.05,1.26.17.35.58.53.78.6-.12.23-.24.46-.35.7-.03.07-.05.14-.08.2.01-.21,0-.47-.14-.69-.28-.46-.97-.75-1.07-.69-.1.06-.11.78.17,1.23.22.35.69.49.88.53-.15.41-.28.84-.38,1.26-.02-.23-.1-.49-.28-.69-.39-.43-1.19-.62-1.29-.54-.09.08.02.85.42,1.28.31.34.85.4,1.06.41-.01.07-.03.15-.04.22-.06.35-.1.7-.12,1.06-.05-.26-.16-.56-.4-.78-.49-.44-1.42-.58-1.52-.48-.1.1.12.94.62,1.38.42.37,1.08.37,1.28.36,0,.31,0,.63.03.94-.07-.13-.16-.25-.29-.36-.52-.43-1.45-.53-1.54-.43s.18.94.69,1.37c.41.34,1.02.33,1.26.32.07.38.16.76.27,1.13-.18-.26-.45-.57-.84-.7-.74-.24-1.8.02-1.86.16-.06.14.6.95,1.34,1.2.61.21,1.3-.09,1.52-.19.02.07.05.14.07.21.13.33.29.64.47.95-.2-.25-.8-.52-1.47-.46-.82.07-1.58.7-1.57.85.02.16.88.68,1.69.62.82-.06,1.44-.59,1.42-.86,0-.01,0-.03,0-.04.27.44.58.84.92,1.21-.3-.06-.69-.06-1.07.06-.78.25-1.38,1.04-1.34,1.19.05.15.99.48,1.77.24.62-.2,1.06-.66,1.18-.97.46.4.95.75,1.47,1.03.04.02.08.04.12.06-.23,0-.49.02-.76.11-.76.26-1.34,1.06-1.3,1.2.05.15.96.44,1.72.17.69-.24,1.15-.81,1.17-1.1.56.24,1.14.42,1.73.56-.32,0-.68.06-.99.19-.74.31-1.4,1.31-1.34,1.48.06.17,1.17.42,1.9.09.73-.32,1.41-1.24,1.31-1.51,0,0,0,0,0,0,.73.17,2.05.33,2.32.2.32-.15-.25-.39-.72-.37Z"/>
      <path class="cls-1" d="M76.49,83.24c.18,0,.89.01,1.25.02-.26-.18-.51-1-.27-1.8.25-.86,1.13-1.51,1.29-1.46.17.06.52,1.13.26,2-.17.57-.52.98-.83,1.17.35-.07.69-.16,1.02-.26.27-.08.53-.17.8-.27-.27-.21-.53-1.03-.31-1.87.23-.92,1.11-1.66,1.29-1.61.18.05.58,1.16.34,2.09-.12.45-.34.82-.58,1.07.26-.12.52-.25.77-.39.29-.17.57-.36.84-.56-.27-.17-.55-.75-.59-1.51-.05-.93.39-1.97.58-2,.19-.02.81.78.85,1.71.02.47-.07.93-.2,1.27.17-.15.33-.31.48-.48.22-.23.41-.49.59-.75-.22-.21-.62-.65-.78-1.31-.22-.93-.09-1.8.07-1.82.16-.02,1,.57,1.22,1.49.06.24.06.48.03.7.07-.15.15-.3.21-.46.14-.37.26-.75.36-1.14-.27-.09-.73-.3-1.02-.76-.44-.69-.54-1.74-.42-1.8.12-.07,1.01.38,1.45,1.06.09.14.15.28.19.42.01-.09.03-.18.04-.27.04-.37.06-.75.05-1.12-.28-.08-.8-.27-1.12-.68-.45-.58-.52-1.42-.41-1.48.1-.07.94.25,1.39.83.02.02.03.05.05.07,0-.06-.01-.12-.02-.18-.05-.36-.13-.72-.22-1.08-.22.04-.74.1-1.17-.12-.56-.3-.92-.94-.86-1.03.06-.1.81-.15,1.38.15.22.12.38.29.5.45-.09-.29-.19-.58-.31-.87-.05-.13-.11-.26-.17-.39-.18.12-.69.18-1.2-.01-.58-.22-1-.81-.96-.91.04-.1.78-.24,1.36-.01.18.07.34.17.47.27-.11-.21-.24-.41-.37-.6-.19.1-.73,0-1.03-.33-.32-.35-.79-1.28-.71-1.35.08-.08,1.21.22,1.53.58.29.32.38.84.28,1.03.16.21.31.44.45.67,0-.2.01-.47.14-.72.24-.48.76-.89.86-.84.1.05.19.78-.05,1.26-.17.35-.58.53-.78.6.12.23.24.46.35.7.03.07.05.14.08.2-.01-.21,0-.47.14-.69.28-.46.97-.75,1.07-.69.1.06.11.78-.17,1.23-.22.35-.69.49-.88.53.15.41.28.84.38,1.26.02-.23.1-.49.28-.69.39-.43,1.19-.62,1.29-.54.09.08-.02.85-.42,1.28-.31.34-.85.4-1.06.41.01.07.03.15.04.22.06.35.1.7.12,1.06.05-.26.16-.56.4-.78.49-.44,1.42-.58,1.52-.48.1.1-.12.94-.62,1.38-.42.37-1.08.37-1.28.36,0,.31,0,.63-.03.94.07-.13.16-.25.29-.36.52-.43,1.45-.53,1.54-.43s-.18.94-.69,1.37c-.41.34-1.02.33-1.26.32-.07.38-.16.76-.27,1.13.18-.26.45-.57.84-.7.74-.24,1.8.02,1.86.16.06.14-.6.95-1.34,1.2-.61.21-1.3-.09-1.52-.19-.02.07-.05.14-.07.21-.13.33-.29.64-.47.95.2-.25.8-.52,1.47-.46.82.07,1.58.7,1.57.85-.02.16-.88.68-1.69.62-.82-.06-1.44-.59-1.42-.86,0-.01,0-.03,0-.04-.27.44-.58.84-.92,1.21.3-.06.69-.06,1.07.06.78.25,1.38,1.04,1.34,1.19-.05.15-.99.48-1.77.24-.62-.2-1.06-.66-1.18-.97-.46.4-.95.75-1.47,1.03-.04.02-.08.04-.12.06.23,0,.49.02.76.11.76.26,1.34,1.06,1.3,1.2-.05.15-.96.44-1.72.17-.69-.24-1.15-.81-1.17-1.1-.56.24-1.14.42-1.73.56.32,0,.68.06.99.19.74.31,1.4,1.31,1.34,1.48-.06.17-1.17.42-1.9.09-.73-.32-1.41-1.24-1.31-1.51,0,0,0,0,0,0-.73.17-2.05.33-2.32.2-.32-.15.25-.39.72-.37Z"/>
    </g>
    <g>
      <path class="cls-1" d="M60.37,69.06s-.01.07-.03.1c-.02.03-.05.05-.09.05-.07,0-.14,0-.2,0-.07,0-.14,0-.21,0-.05,0-.09.02-.1.07-.02.05-.02.09-.02.13,0,.34,0,.67,0,1.01,0,.33,0,.67,0,1.01,0,.48,0,.95,0,1.43,0,.48,0,.95,0,1.43,0,.04,0,.09.02.13.02.05.05.07.1.07.07,0,.14,0,.21,0,.07,0,.13,0,.2,0,.04,0,.07.02.09.06s.02.07.02.11c0,.08-.04.12-.13.12-.04,0-.08,0-.13,0-.04,0-.08,0-.13,0-.08-.01-.16-.02-.24-.02h-.78c-.18,0-.36,0-.55.02-.05,0-.11,0-.16,0-.06,0-.11,0-.17,0-.05,0-.09-.02-.11-.05-.02-.03-.03-.07-.03-.11s.02-.07.05-.09c.03-.02.07-.03.1-.03.06,0,.11,0,.16,0,.05,0,.1,0,.15,0,.08,0,.13-.02.16-.04.03-.03.04-.08.04-.16v-2.45h-2.59v2.47c0,.08.02.13.05.16.03.03.08.04.16.04.05,0,.11,0,.16,0,.05,0,.11,0,.16,0,.04,0,.08,0,.11.03.03.02.05.05.05.1,0,.1-.05.15-.14.15-.19,0-.39,0-.58-.02-.19-.01-.38-.02-.57-.02h-.29c-.1,0-.19,0-.29,0-.07,0-.14.01-.2.02-.07,0-.13.01-.2.01-.04,0-.06-.02-.08-.05s-.03-.06-.03-.09.01-.06.03-.09c.02-.03.05-.05.08-.05.07,0,.14,0,.2,0s.13,0,.2,0c.06,0,.09-.02.11-.07.02-.05.02-.09.02-.13v-4.89s0-.09-.02-.13c-.02-.05-.05-.07-.11-.07-.07,0-.14,0-.2,0s-.13,0-.2,0c-.08,0-.13-.05-.13-.14,0-.04.01-.07.03-.1.02-.03.05-.05.09-.05.14,0,.27,0,.41.02.13.01.27.02.41.02.22,0,.43,0,.65-.02.22-.01.43-.02.65-.02.1,0,.15.05.15.15,0,.07-.03.11-.08.12-.06.01-.11.02-.15.02-.04,0-.07,0-.11,0-.04,0-.08,0-.12,0-.07,0-.12.02-.15.06s-.05.1-.05.17v2.14h2.59v-2.17c0-.08-.01-.13-.04-.16-.03-.03-.08-.04-.16-.04-.05,0-.1,0-.15,0-.05,0-.1,0-.16,0-.03,0-.06-.01-.1-.04s-.05-.06-.05-.09c0-.1.05-.15.15-.15.06,0,.13,0,.19,0,.06,0,.13.01.19.02.12,0,.24,0,.36.01.12,0,.24,0,.36,0,.17,0,.35,0,.52-.02.18-.01.35-.02.52-.02.04,0,.07.01.09.04.02.03.03.06.03.09Z"/>
      <path class="cls-1" d="M63.34,69.07c0,.09-.04.13-.13.13-.06,0-.13,0-.19,0-.07,0-.13,0-.19,0-.05,0-.09.02-.11.07-.02.04-.03.09-.03.14,0,.18,0,.37,0,.56,0,.19,0,.37,0,.56,0,.58,0,1.16,0,1.74,0,.58,0,1.16,0,1.74,0,.04,0,.09,0,.17,0,.08,0,.15.02.22.02.07.06.1.11.1.07,0,.14,0,.21,0,.07,0,.14,0,.21,0,.04,0,.06.01.08.04.02.03.02.06.02.1s-.01.07-.04.1c-.02.03-.06.04-.1.04-.18,0-.36,0-.53,0-.18,0-.35,0-.53,0s-.36,0-.54,0c-.18,0-.36,0-.54,0-.05,0-.09-.01-.1-.03s-.02-.06-.02-.1c0-.04,0-.08.03-.11.02-.03.05-.04.09-.04.06,0,.12,0,.17,0,.06,0,.11,0,.17,0,.07,0,.12-.02.15-.07.03-.05.04-.1.05-.17,0-.07,0-.12,0-.17v-4.52s0-.12,0-.21c-.01-.09-.05-.14-.11-.15h-.09c-.05,0-.1,0-.15,0-.05,0-.1,0-.15,0-.1,0-.15-.05-.15-.15,0-.04.01-.07.04-.09.02-.03.05-.04.09-.04.23,0,.45,0,.67.02.22.01.45.02.67.02.14,0,.27,0,.41-.02.14-.01.28-.02.41-.02.04,0,.07.02.09.05.02.03.02.07.02.1Z"/>
      <path class="cls-1" d="M69.86,72.29s0,.08-.03.12c-.02.04-.05.06-.11.06h-.4v1.63c-.18.06-.37.13-.54.21s-.36.16-.54.24c-.18.08-.37.14-.58.16-.21.02-.41.03-.61.03-.17,0-.36-.02-.56-.06-.2-.04-.39-.09-.58-.16-.19-.07-.35-.16-.5-.26-.38-.28-.66-.63-.84-1.06-.18-.43-.26-.87-.26-1.33,0-.42.06-.8.19-1.17.13-.36.32-.68.56-.95.24-.27.54-.49.88-.64.34-.15.73-.23,1.16-.23.34,0,.68.05,1.01.16.05.02.12.04.22.08.1.04.19.07.29.11.1.03.16.05.19.05.08,0,.13-.03.17-.09.03-.06.06-.12.09-.17s.07-.09.13-.09c.03,0,.06,0,.09.02s.04.04.04.08c0,.24,0,.48.01.72,0,.24.01.48.01.72,0,.07-.03.13-.07.18-.05.05-.11.07-.19.07-.09,0-.15-.02-.18-.06-.03-.04-.06-.1-.09-.18-.13-.4-.34-.73-.61-.98-.28-.25-.63-.37-1.08-.37-.21,0-.4.05-.58.15s-.32.23-.45.39c-.13.16-.24.33-.33.52-.09.19-.16.37-.21.55-.05.18-.08.36-.1.55-.02.19-.03.38-.03.57s.01.37.03.55c.02.18.06.37.11.54.07.24.17.47.31.69.14.22.31.4.52.54.21.14.45.21.72.21.1,0,.21-.01.34-.04.13-.03.25-.07.37-.12.12-.05.22-.12.3-.21.08-.09.12-.19.12-.32v-1.04s-.01-.08-.04-.13c-.02-.04-.06-.06-.11-.06-.07,0-.15,0-.22.01-.08,0-.15.01-.22.01-.04,0-.08-.03-.11-.08-.03-.05-.04-.09-.04-.13s.02-.07.05-.09c.03-.03.07-.04.1-.04.07,0,.15,0,.22,0,.08,0,.15,0,.22,0,.18,0,.36,0,.53,0,.18,0,.35,0,.53-.01.09,0,.19-.01.28-.02.09,0,.19-.01.28-.01.04,0,.07.02.09.05s.02.07.02.11Z"/>
      <path class="cls-1" d="M76.38,69.06s-.01.07-.03.1c-.02.03-.05.05-.09.05-.07,0-.14,0-.2,0-.07,0-.14,0-.21,0-.05,0-.09.02-.1.07-.02.05-.02.09-.02.13,0,.34,0,.67,0,1.01,0,.33,0,.67,0,1.01,0,.48,0,.95,0,1.43,0,.48,0,.95,0,1.43,0,.04,0,.09.02.13.02.05.05.07.1.07.07,0,.14,0,.21,0,.07,0,.13,0,.2,0,.04,0,.07.02.09.06s.02.07.02.11c0,.08-.04.12-.13.12-.04,0-.08,0-.13,0-.04,0-.08,0-.13,0-.08-.01-.16-.02-.24-.02h-.78c-.18,0-.36,0-.55.02-.05,0-.11,0-.16,0-.06,0-.11,0-.17,0-.05,0-.09-.02-.11-.05-.02-.03-.03-.07-.03-.11s.02-.07.05-.09c.03-.02.07-.03.1-.03.06,0,.11,0,.16,0,.05,0,.1,0,.15,0,.08,0,.13-.02.16-.04.03-.03.04-.08.04-.16v-2.45h-2.59v2.47c0,.08.02.13.05.16.03.03.08.04.16.04.05,0,.11,0,.16,0,.05,0,.11,0,.16,0,.04,0,.08,0,.11.03.03.02.05.05.05.1,0,.1-.05.15-.14.15-.19,0-.39,0-.58-.02-.19-.01-.38-.02-.57-.02h-.29c-.1,0-.19,0-.29,0-.07,0-.14.01-.2.02-.07,0-.13.01-.2.01-.04,0-.06-.02-.08-.05s-.03-.06-.03-.09.01-.06.03-.09c.02-.03.05-.05.08-.05.07,0,.14,0,.2,0s.13,0,.2,0c.06,0,.09-.02.11-.07.02-.05.02-.09.02-.13v-4.89s0-.09-.02-.13c-.02-.05-.05-.07-.11-.07-.07,0-.14,0-.2,0s-.13,0-.2,0c-.08,0-.13-.05-.13-.14,0-.04.01-.07.03-.1.02-.03.05-.05.09-.05.14,0,.27,0,.41.02.13.01.27.02.41.02.22,0,.43,0,.65-.02.22-.01.43-.02.65-.02.1,0,.15.05.15.15,0,.07-.03.11-.08.12-.06.01-.11.02-.15.02-.04,0-.07,0-.11,0-.04,0-.08,0-.12,0-.07,0-.12.02-.15.06s-.05.1-.05.17v2.14h2.59v-2.17c0-.08-.01-.13-.04-.16-.03-.03-.08-.04-.16-.04-.05,0-.1,0-.15,0-.05,0-.1,0-.16,0-.03,0-.06-.01-.1-.04s-.05-.06-.05-.09c0-.1.05-.15.15-.15.06,0,.13,0,.19,0,.06,0,.13.01.19.02.12,0,.24,0,.36.01.12,0,.24,0,.36,0,.17,0,.35,0,.52-.02.18-.01.35-.02.52-.02.04,0,.07.01.09.04.02.03.03.06.03.09Z"/>
    </g>
    <g>
      <path class="cls-1" d="M57.12,79.29c0,.2-.04.36-.13.5-.09.13-.21.24-.35.31-.15.08-.3.13-.48.16-.17.03-.34.05-.5.05-.13,0-.25-.02-.36-.05-.12-.04-.23-.08-.35-.12-.06-.02-.12-.03-.17-.04-.06,0-.12,0-.18,0-.01-.08-.02-.16-.03-.24s-.02-.16-.04-.24c0-.06-.02-.11-.03-.17-.01-.05-.02-.11-.02-.16,0-.05,0-.09.03-.12.02-.03.05-.05.11-.05.05,0,.08.01.11.03.03.02.05.05.06.1.02.06.04.12.06.19s.04.13.06.2c.06.16.15.29.29.39.13.1.29.14.47.14.24,0,.42-.07.55-.21.13-.14.19-.33.19-.56,0-.14-.03-.25-.09-.34-.06-.09-.13-.17-.23-.23s-.19-.13-.3-.18c-.1-.06-.2-.11-.3-.15-.1-.05-.2-.1-.3-.15-.11-.06-.22-.13-.32-.22-.1-.09-.19-.19-.26-.3-.07-.12-.1-.24-.1-.37,0-.23.06-.41.18-.56.12-.15.27-.26.46-.33s.38-.11.58-.11c.13,0,.26.02.38.05.12.04.24.08.36.13.04.01.07.02.11.03.03,0,.07.01.11.01.03,0,.05,0,.08,0,.02,0,.05,0,.07,0,.01.11.02.22.04.33l.04.33s0,.04,0,.05c0,.02,0,.04,0,.05,0,.05-.01.09-.03.13-.02.04-.06.06-.12.06-.04,0-.08-.01-.1-.03-.02-.02-.04-.05-.06-.09-.04-.11-.08-.21-.12-.31s-.09-.2-.16-.29c-.08-.1-.17-.17-.28-.21s-.23-.07-.35-.07-.21.03-.29.1c-.08.06-.14.14-.17.24-.04.1-.06.2-.06.31,0,.16.04.29.13.38.09.09.2.17.33.25.07.04.14.07.22.11s.15.07.22.11c.17.08.34.17.5.29s.3.24.41.4c.11.15.16.33.16.54Z"/>
      <path class="cls-1" d="M60.92,79.37s0,.04-.03.07-.03.06-.04.07c-.04.08-.11.16-.21.25-.09.09-.18.16-.26.21-.16.11-.33.19-.51.22s-.36.05-.56.05c-.37,0-.69-.08-.96-.23-.26-.16-.47-.37-.6-.65-.14-.28-.21-.6-.21-.97s.07-.69.2-.98c.13-.29.33-.52.59-.7.26-.17.58-.26.96-.26.17,0,.32.02.44.06.12.04.26.09.41.14.07.02.14.04.22.05s.15.02.22.03c0,.08,0,.15.02.23,0,.08.02.16.03.23,0,.07.02.13.04.2s.03.14.03.21-.02.11-.07.14c-.05.03-.1.05-.16.05-.1,0-.16-.04-.2-.12-.01-.03-.02-.06-.02-.09,0-.03,0-.06-.02-.09-.02-.11-.07-.23-.13-.36-.06-.13-.13-.23-.21-.31-.07-.06-.15-.11-.27-.16-.11-.05-.21-.07-.3-.07s-.17.02-.24.06c-.07.04-.14.08-.21.14-.15.12-.26.27-.35.44-.09.17-.15.35-.18.55-.03.19-.05.38-.05.57,0,.12,0,.25.02.37.02.12.04.24.07.36.05.16.12.31.21.46.09.14.2.26.34.34.14.09.29.13.47.13.25,0,.48-.06.69-.19.21-.13.38-.29.52-.5.02-.03.04-.06.06-.09.02-.03.06-.04.1-.04s.08.02.1.05c.02.03.03.07.03.11Z"/>
      <path class="cls-1" d="M65.15,76.56s0,.05-.02.07c-.01.02-.03.03-.06.03-.04,0-.09,0-.13,0-.04,0-.09,0-.14,0-.03,0-.06.02-.07.05-.01.03-.02.06-.02.09,0,.22,0,.44,0,.66s0,.44,0,.66c0,.31,0,.62,0,.93,0,.31,0,.62,0,.93,0,.03,0,.06.02.09.01.03.03.05.07.05.05,0,.09,0,.14,0s.09,0,.13,0c.03,0,.05.01.06.04.01.02.02.05.02.07,0,.05-.03.08-.08.08-.03,0-.05,0-.08,0-.03,0-.05,0-.08,0-.05,0-.1-.01-.15-.01h-.51c-.12,0-.24,0-.36.01-.03,0-.07,0-.11,0s-.07,0-.11,0c-.03,0-.06-.01-.07-.03-.01-.02-.02-.04-.02-.07s.01-.05.03-.06c.02-.01.04-.02.07-.02.04,0,.07,0,.11,0s.07,0,.1,0c.05,0,.09,0,.11-.03.02-.02.03-.05.03-.11v-1.6h-1.69v1.61c0,.05.01.09.03.11.02.02.05.03.1.03.03,0,.07,0,.1,0s.07,0,.1,0c.03,0,.05,0,.07.02.02.01.03.03.03.06,0,.07-.03.1-.09.1-.13,0-.25,0-.38-.01s-.25-.01-.37-.01h-.19c-.06,0-.13,0-.19,0-.04,0-.09,0-.13.01-.04,0-.09,0-.13,0-.02,0-.04-.01-.05-.03-.01-.02-.02-.04-.02-.06,0-.02,0-.04.02-.06.01-.02.03-.03.05-.03.04,0,.09,0,.13,0,.04,0,.09,0,.13,0,.04,0,.06-.02.07-.05.01-.03.02-.06.02-.09v-3.19s0-.06-.02-.09c-.01-.03-.03-.05-.07-.05-.04,0-.09,0-.13,0-.04,0-.09,0-.13,0-.06,0-.08-.03-.08-.09,0-.02,0-.05.02-.07.01-.02.03-.03.06-.03.09,0,.18,0,.26.01s.18.01.26.01c.14,0,.28,0,.42-.01.14,0,.28-.01.42-.01.07,0,.1.03.1.1,0,.04-.02.07-.05.08-.04,0-.07.01-.1.01-.02,0-.05,0-.07,0s-.05,0-.08,0c-.04,0-.08.01-.1.04-.02.03-.03.06-.03.11v1.39h1.69v-1.41c0-.05,0-.09-.03-.11-.02-.02-.05-.03-.11-.03-.03,0-.07,0-.1,0-.03,0-.07,0-.11,0-.02,0-.04,0-.06-.03-.02-.02-.03-.04-.03-.06,0-.07.03-.1.1-.1.04,0,.08,0,.12,0,.04,0,.08,0,.12.01.08,0,.16,0,.24,0,.08,0,.16,0,.24,0,.11,0,.23,0,.34-.01.12,0,.23-.01.34-.01.03,0,.05,0,.06.03.01.02.02.04.02.06Z"/>
      <path class="cls-1" d="M69.23,78.36c0,.39-.07.72-.21,1.01-.14.29-.34.51-.61.67-.27.16-.6.24-1,.24s-.72-.08-.99-.24c-.27-.16-.48-.38-.62-.67s-.21-.62-.21-1c0-.27.04-.52.13-.75.08-.23.21-.44.36-.62s.35-.32.58-.42c.22-.1.48-.15.75-.15.39,0,.72.08.99.24.27.16.48.39.61.68s.21.62.21,1.01ZM68.49,78.37c0-.13-.01-.27-.03-.43-.02-.16-.06-.32-.1-.48-.05-.16-.11-.3-.2-.43-.08-.13-.18-.24-.31-.32s-.27-.12-.43-.12-.31.04-.44.12c-.12.08-.23.19-.31.32-.08.13-.15.28-.2.43s-.09.32-.11.48c-.02.16-.03.3-.03.43s.01.27.04.43.06.31.11.47.12.3.2.43c.08.13.19.23.31.31.12.08.27.12.43.12s.32-.04.44-.12c.12-.08.22-.18.3-.31.08-.13.14-.27.19-.42.05-.15.08-.31.1-.47.02-.16.03-.3.03-.44Z"/>
      <path class="cls-1" d="M73.45,78.36c0,.39-.07.72-.21,1.01-.14.29-.34.51-.61.67-.27.16-.6.24-1,.24s-.72-.08-.99-.24c-.27-.16-.48-.38-.62-.67s-.21-.62-.21-1c0-.27.04-.52.13-.75.08-.23.21-.44.36-.62s.35-.32.58-.42c.22-.1.48-.15.75-.15.39,0,.72.08.99.24.27.16.48.39.61.68s.21.62.21,1.01ZM72.7,78.37c0-.13-.01-.27-.03-.43-.02-.16-.06-.32-.1-.48-.05-.16-.11-.3-.2-.43-.08-.13-.18-.24-.31-.32s-.27-.12-.43-.12-.31.04-.44.12c-.12.08-.23.19-.31.32-.08.13-.15.28-.2.43s-.09.32-.11.48c-.02.16-.03.3-.03.43s.01.27.04.43.06.31.11.47.12.3.2.43c.08.13.19.23.31.31.12.08.27.12.43.12s.32-.04.44-.12c.12-.08.22-.18.3-.31.08-.13.14-.27.19-.42.05-.15.08-.31.1-.47.02-.16.03-.3.03-.44Z"/>
      <path class="cls-1" d="M77.1,79.05c0,.06,0,.11-.01.16,0,.05-.01.11-.02.17-.01.12-.03.24-.05.36-.02.12-.03.24-.04.36,0,.03,0,.06-.02.09-.02.02-.04.04-.08.04-.03,0-.07,0-.09,0-.04,0-.08,0-.12,0-.04,0-.08,0-.13,0-.22,0-.43,0-.65,0h-1.46c-.07,0-.15,0-.22,0-.04,0-.08,0-.11,0-.04,0-.08,0-.11,0-.03,0-.06,0-.08-.03-.02-.02-.03-.04-.03-.07,0-.03.01-.06.03-.08.02-.02.05-.03.07-.03s.06,0,.08,0c.03,0,.06,0,.08,0,.05,0,.1,0,.13-.02.03-.02.05-.05.05-.12v-1.6c0-.53,0-1.06,0-1.59,0-.04,0-.07-.02-.08-.02-.01-.04-.02-.08-.02s-.08,0-.12,0-.08,0-.12,0c-.02,0-.05,0-.07-.03-.02-.02-.03-.04-.03-.07,0-.07.03-.1.1-.1.04,0,.08,0,.12,0s.08,0,.12.01c.08,0,.16,0,.24,0,.08,0,.16,0,.24,0h.2c.07,0,.13,0,.2,0,.05,0,.09,0,.14-.01.04,0,.09,0,.13,0,.05,0,.08.03.08.09,0,.02,0,.05-.02.07-.01.02-.03.03-.06.03-.04,0-.09,0-.13,0s-.09,0-.14,0c-.04,0-.06,0-.07.03,0,.02-.01.05-.01.08,0,.13,0,.25,0,.37,0,.12,0,.25,0,.38,0,.4,0,.8,0,1.2s0,.8,0,1.2c0,.03,0,.07.03.1s.04.05.08.06c.04.01.09.02.14.02h.14c.26,0,.48-.03.67-.08.19-.05.35-.15.48-.29s.24-.34.33-.6c.01-.03.02-.06.04-.08s.04-.04.08-.04c.02,0,.04,0,.06.02.02.01.03.03.03.06Z"/>
    </g>
    <g>
      <path class="cls-4" d="M44.62,41.29c.37.08.58.2.59.36.03.33-.38.57-1.18.72l-.23,2.2,7.75-.6.88-1.12,1.93,1.09.03.45-10.65.83-.35,3.35,7.32-.57.61-1.1c1.1.59,1.66.88,1.66.88.28.18.45.32.46.46.01.18-.11.3-.35.39l-.48.19c0,1.39-.02,2.63-.03,3.68l1.88-.15,1.03-1.47,2.22,1.4.03.42-5.18.4c-.09,1.76-.21,3.03-.38,3.8-.38,1.4-.89,2.36-1.48,2.9-.48.46-1.07.73-1.74.79-.22.02-.35-.11-.36-.35-.04-.54-.27-.83-.63-.87,0,0-.61-.09-1.84-.22l-.03-.36,3.77-.29c.51-.71.85-1.82,1.04-3.32.05-.56.08-1.22.12-1.96l-13.01,1.01-.32-.58,13.35-1.04c.04-1.17.05-2.52.02-4.04l-7.77.61-.25,2.31-1.56.12,1.19-10.63,1.91.32Z"/>
      <path class="cls-4" d="M75.96,41.04l2.28.18.49-.75c.85.58,1.28.86,1.28.86.26.18.4.32.39.41-.01.13-.13.24-.36.26l-.49.19-1.26,16.18c-.08.44-.38.82-.9,1.12-.51.18-.94.26-1.3.24-.18-.01-.26-.13-.26-.36-.01-.41-.17-.66-.48-.73l-.92-.34.03-.45,2.46.19.48-6.18-2.46-.19c-.19,1.33-.44,2.5-.72,3.49-.51,1.69-1.33,3.27-2.46,4.77l-.24-.38c.63-1.21,1.12-2.61,1.52-4.24.39-1.59.7-3.79.92-6.62l.66-8.46,1.33.8ZM77.45,51.24l.35-4.44-2.37-.18-.17,2.19c-.06.8-.14,1.56-.22,2.25l2.41.19ZM77.85,46.2l.34-4.35-2.37-.18-.34,4.35,2.37.18ZM89.93,53.92c.23.2.35.34.35.43-.01.18-.16.3-.39.35l-.44.12c-.39,2.17-.75,3.6-1.12,4.27-.41.69-.85,1.17-1.34,1.4-.4.19-.85.29-1.34.25-.16-.01-.21-.13-.2-.33.03-.45-.08-.72-.34-.79,0,0-.44-.15-1.27-.44l.03-.42,2.63.21c.38-.29.71-.78.97-1.47.24-.74.45-1.78.69-3.14l-3.55-.28c-.44,1.34-.97,2.42-1.62,3.24-1.1,1.37-2.69,2.28-4.75,2.75l-.06-.36c1.71-.61,3.05-1.67,4.03-3.26.41-.66.77-1.49,1.07-2.48l-2.88-.22-.29-.63,3.33.26c.23-.88.41-1.85.57-2.94,1.28.32,1.92.46,1.92.46.15.06.23.18.22.31-.01.18-.31.29-.91.38-.14.69-.28,1.33-.44,1.9l3.08.24.67-.82c.91.68,1.38,1.01,1.38,1.01ZM92.04,46.43l-.03.42-5.09-.4c.36,1.11.81,2.04,1.31,2.82l1.74.14,1.06-1.22,1.72,1.62-.03.45-4.04-.31s.04.09.06.09c.81,1.07,2.1,2.12,3.85,3.11l-.03.33c-.72.08-1.22.33-1.47.76-1.35-1.14-2.34-2.27-2.95-3.37-.2-.33-.35-.66-.51-1l-4.58-.36c-1.11,1.51-2.37,2.76-3.82,3.72l-.23-.44c1.15-.99,2.14-2.12,2.96-3.36l-2.32-.18-.22-.65,2.92.23c.21-.34.39-.69.57-1.03.24-.48.46-1.02.69-1.59l-3.37-.26-.2-.62,3.77.29c.44-1.38.82-3.01,1.15-4.92l1.75.56c.24.11.36.23.36.32-.01.13-.29.22-.81.27-.43,1.49-.87,2.78-1.27,3.85l4.11.32,1.15-1.24,1.8,1.64ZM82.66,42.87c.3.43.45.8.43,1.11-.05.65-.28.94-.68.91-.4-.03-.65-.32-.74-.87-.18-1.14-.52-2.02-1.01-2.62l.29-.25c.72.59,1.28,1.15,1.71,1.71ZM86.45,46.42l-1.7-.13c-.45,1.13-.9,2-1.3,2.62l3.91.3c-.36-.88-.67-1.8-.91-2.79ZM90.52,42.69c.19.15.29.27.28.38-.01.18-.31.25-.89.2l-2.63,2.33-.34-.21,2.22-3.67,1.36.96Z"/>
    </g>
    <path class="cls-1" d="M81.58,30.31c-.8.19-1.73.5-2.92.52-.77,0-2.99-1.38-4.69-1.46-1.27-.13-2.83.43-2.83.43,0,0,2.94-2.81,2.1-5.63-.03-.11-.19-.1-.21.01-.13.78-.51,2.04-1.07,1.93-.32-.06,1.66-4.62-1.01-6.78-.07-.05-.17.02-.14.1.21.58.66,1.69.33,2.21-.44.7-.87-4.5-5.94-4.5s-5.5,5.2-5.94,4.5c-.33-.52.12-1.63.33-2.21.03-.08-.07-.15-.14-.1-2.67,2.16-.7,6.72-1.01,6.78-.57.11-.94-1.15-1.07-1.93-.02-.11-.18-.12-.21-.01-.84,2.82,2.1,5.63,2.1,5.63,0,0-1.56-.56-2.83-.43-1.71.08-3.92,1.47-4.69,1.46-1.19-.01-2.11-.32-2.92-.52-.1-.02-.16.11-.07.17.74.47,2.34,1.31,4,1.31,2.48,0,3.08-1.51,4.99-1.51,1.52,0,1.97.17,2.15.2.04,0,.07.02.1.04.28.17,2.15,1.38,5.21,1.38s4.93-1.21,5.21-1.38c.03-.02.06-.03.1-.04.18-.03.62-.2,2.15-.2,1.9,0,2.51,1.51,4.99,1.51,1.67,0,3.27-.84,4-1.31.09-.06.03-.19-.07-.17ZM69.55,23.4c-.28-.29-.56-.74-1.17-.96-.13-.05-.22.11-.12.21,1.39,1.66,1.48,5.36-1.35,5.86-.16,0-.86.12-.91-.65-.04-.6.77-.9.77-.9l-1.56-1.44-1.56,1.44s.81.3.77.9c-.06.78-.75.65-.91.65-2.84-.5-2.75-4.2-1.35-5.86.09-.11,0-.26-.12-.21-.61.22-.89.67-1.17.96-.13.13-.33.07-.3-.14.54-4.23,3.74-4.77,4.65-4.77,1.33,0,4.3.61,4.65,4.77.02.21-.17.27-.3.14Z"/>
  </g>
  <g>
    <path class="cls-5" d="M145.07,38.28c.48.15.75.33.75.54,0,.45-.57.72-1.66.84l-.54,2.92h10.45l1.29-1.41,2.47,1.66v.6h-14.36l-.81,4.46h9.87l.93-1.41c1.41.9,2.14,1.35,2.14,1.35.36.27.57.48.57.66,0,.24-.18.39-.51.48l-.66.21c-.15,1.87-.3,3.52-.42,4.94h2.53l1.53-1.87,2.83,2.11v.57h-6.98c-.3,2.35-.6,4.03-.9,5.06-.66,1.84-1.44,3.07-2.29,3.73-.69.57-1.51.87-2.41.87-.3,0-.45-.18-.45-.51,0-.72-.27-1.14-.75-1.23,0,0-.81-.18-2.44-.48v-.48h5.09c.75-.9,1.32-2.35,1.75-4.33.12-.75.24-1.63.36-2.62h-17.55l-.36-.81h18c.18-1.57.33-3.37.45-5.42h-10.48l-.57,3.07h-2.11l2.71-14.12,2.53.63Z"/>
    <path class="cls-5" d="M170.56,38.95h3.07l.57-1.05c1.2.69,1.81,1.02,1.81,1.02.36.21.57.39.57.51,0,.18-.15.33-.45.39l-.63.3v21.83c-.06.6-.42,1.14-1.08,1.6-.66.3-1.23.45-1.72.45-.24,0-.36-.15-.39-.45-.06-.54-.3-.87-.72-.93,0,0-.42-.12-1.26-.36v-.6h3.31v-8.34h-3.31c-.12,1.81-.33,3.4-.6,4.76-.51,2.32-1.44,4.52-2.8,6.65l-.36-.48c.72-1.69,1.23-3.61,1.6-5.84.36-2.17.54-5.15.54-8.97v-11.41l1.87.93ZM173.63,52.46v-5.99h-3.19v2.95c0,1.08-.03,2.11-.06,3.04h3.25ZM173.63,45.66v-5.87h-3.19v5.87h3.19ZM190.64,54.75c.33.24.51.42.51.54,0,.24-.18.42-.48.51l-.57.21c-.3,2.95-.63,4.91-1.05,5.84-.48.96-1.02,1.66-1.66,2.02-.51.3-1.11.48-1.78.48-.21,0-.3-.15-.3-.42,0-.6-.18-.96-.54-1.02,0,0-.6-.15-1.75-.45v-.57h3.55c.48-.42.87-1.11,1.14-2.08.24-1.02.42-2.44.6-4.27h-4.79c-.45,1.84-1.05,3.34-1.84,4.52-1.32,1.96-3.37,3.34-6.08,4.18l-.12-.48c2.23-.99,3.91-2.56,5.06-4.79.48-.93.87-2.08,1.17-3.43h-3.88l-.45-.81h4.49c.21-1.2.36-2.53.45-4,1.75.3,2.62.42,2.62.42.21.06.33.21.33.39,0,.24-.39.42-1.17.6-.12.93-.24,1.81-.39,2.59h4.15l.81-1.17c1.29.81,1.96,1.2,1.96,1.2ZM192.68,44.48v.57h-6.86c.6,1.44,1.29,2.65,2.05,3.64h2.35l1.29-1.75,2.47,1.99v.6h-5.45c.03.06.06.12.09.12,1.2,1.35,3.04,2.62,5.48,3.76v.45c-.96.18-1.6.57-1.9,1.17-1.93-1.38-3.37-2.8-4.31-4.21-.3-.42-.54-.84-.78-1.29h-6.17c-1.32,2.14-2.89,3.94-4.73,5.39l-.36-.57c1.44-1.45,2.65-3.07,3.61-4.82h-3.13l-.36-.84h3.94c.24-.48.45-.96.66-1.44.27-.66.51-1.41.75-2.2h-4.55l-.33-.81h5.09c.45-1.9.78-4.12,1.02-6.71l2.41.57c.33.12.51.27.51.39,0,.18-.36.33-1.05.45-.42,2.05-.87,3.82-1.29,5.3h5.54l1.42-1.78,2.59,2.02ZM179.74,40.69c.45.54.69,1.02.69,1.44,0,.87-.27,1.29-.81,1.29s-.9-.36-1.08-1.08c-.36-1.51-.9-2.65-1.63-3.4l.36-.36c1.02.72,1.84,1.42,2.47,2.11ZM185.19,45.06h-2.29c-.48,1.57-.99,2.77-1.47,3.64h5.27c-.57-1.14-1.08-2.35-1.51-3.64ZM190.25,39.64c.27.18.42.33.42.48,0,.24-.39.36-1.17.36l-3.28,3.4-.48-.24,2.59-5.15,1.93,1.14Z"/>
    <path class="cls-5" d="M214.38,37.71c.21.12.33.24.33.42s-.12.33-.33.39c-.27.06-.48.12-.6.18v2.35h7.53l1.53-1.75,2.68,1.99v.6h-25.38l-.36-.84h11.86v-3.76l2.74.42ZM203.54,51.77h18l1.17-1.42c1.29,1.08,1.96,1.6,1.96,1.6.24.24.39.39.39.51,0,.24-.18.42-.48.51l-.69.21v9.75c0,.72-.9,1.17-2.71,1.41-.18,0-.27-.21-.3-.63-.12-.54-.42-.87-.93-.93,0,0-.42-.09-1.23-.21v-.57h3.28v-9.42h-18.82v11.41l-1.87.48v-13.88l2.23,1.17ZM208.15,44.12h9.39l.57-1.05,2.08,1.14c.33.24.51.39.51.51,0,.18-.45.39-1.29.57v4.7l-1.87.36v-.93h-9.66v.69l-1.87.48v-7.41l2.14.93ZM209.6,54.72h6.41l.6-.96,1.78,1.08c.3.21.45.36.45.45,0,.21-.33.42-.96.6v4.94l-1.87.33v-1.05h-6.71v1.17l-1.87.48v-8.01l2.17.96ZM217.54,48.58v-3.64h-9.66v3.64h9.66ZM216.01,59.3v-3.76h-6.71v3.76h6.71Z"/>
    <path class="cls-5" d="M238.82,38.4c.24.15.39.3.39.42,0,.24-.33.42-.93.48-.3.54-.57,1.05-.84,1.54h4.73l1.05-1.41,2.02,1.63v.6h-6.53c1.6,1.23,2.41,2.23,2.41,2.95,0,1.02-.39,1.51-1.17,1.51-.57,0-.84-.3-.84-.93,0-1.26-.42-2.44-1.2-3.52h-.93c-1.5,2.41-3.16,4.49-5.03,6.23l-.45-.36c2.05-2.53,3.76-5.9,5.15-10.11l2.2.99ZM249.66,38.7c.24.12.39.24.39.36,0,.24-.39.42-1.17.48-.24.45-.51.87-.75,1.29h6.26l1.29-1.54,2.35,1.75v.6h-7.89c1.57,1.14,2.38,2.05,2.38,2.71,0,1.02-.39,1.54-1.17,1.54-.57,0-.84-.3-.84-.96,0-1.2-.42-2.29-1.2-3.28h-1.69c-.84,1.26-1.75,2.41-2.68,3.37l1.87.27c.18.09.3.21.3.36,0,.18-.12.33-.33.39-.27.06-.48.12-.6.18v1.53h5.99l1.29-1.66,2.35,1.9v.57h-9.63v3.07h8.7l1.42-1.78,2.59,2.02v.57h-8.1c.78.12,1.17.15,1.17.15.36.06.57.15.57.33s-.33.39-.93.6v1.99h2.8l1.29-1.66,2.35,1.9v.57h-6.44v5.54c0,1.08-.54,1.84-1.57,2.26-.48.21-.84.33-1.02.33s-.3-.18-.42-.48c-.12-.54-.51-.9-1.17-1.05,0,0-.69-.18-2.05-.48v-.57h4.46v-5.54h-16.83l-.33-.81h17.16v-3.07h-17.76l-.36-.81h12.58v-3.07h-9.39l-.36-.81h9.75v-2.05c-.36.36-.69.69-1.05.99l-.45-.36c1.87-2.11,3.43-4.91,4.7-8.46l2.2.81ZM242.1,58.75c.66.69.99,1.26.99,1.72,0,.96-.39,1.41-1.17,1.41-.27,0-.48-.12-.6-.36-.78-1.96-1.66-3.4-2.68-4.33l.36-.48c1.35.69,2.38,1.39,3.1,2.05Z"/>
    <path class="cls-5" d="M287.34,39.31c.33.21.51.39.51.57,0,.33-.48.48-1.42.48l-3.94,4.24h5.81l1.05-1.05,2.35,1.96c.24.21.36.42.36.6-.06.33-.24.48-.6.48h-1.14l-3.19,2.23-.48-.45,1.42-2.95h-20.11c-.18,1.84-.51,3.01-1.05,3.52-.36.42-.72.6-1.05.6-.96,0-1.42-.39-1.42-1.17,0-.21.18-.45.54-.75,1.5-1.11,2.26-2.71,2.29-4.79h.81c0,.66-.03,1.23-.06,1.78h13.61l3.52-6.59,2.2,1.29ZM285.99,49.06c.21.18.33.39.33.6-.06.24-.24.33-.57.33h-1.08l-4.45,2.35c0,.18-.33.39-.96.6v1.78h8.37l1.29-1.66,2.35,1.87v.6h-12.01v6.47c0,1.2-.57,2.02-1.66,2.47-.54.24-.93.36-1.14.36-.18,0-.3-.18-.42-.51-.09-.6-.45-.96-1.11-1.14,0,0-.69-.18-2.02-.48v-.69h4.49v-6.47h-12.1l-.36-.81h12.46v-2.95c.84.12,1.44.18,1.84.21l3.34-3.04h-12.46l-.36-.81h13.06l.93-.93,2.26,1.87ZM271.93,40.9c.57.66.87,1.23.87,1.69,0,.87-.36,1.29-1.08,1.29-.24,0-.39-.09-.51-.33-.66-1.93-1.41-3.34-2.29-4.24l.33-.48c1.17.69,2.08,1.38,2.68,2.08ZM277.86,39.67c.69.69,1.05,1.26,1.05,1.75,0,.87-.36,1.29-1.05,1.29-.3,0-.54-.12-.66-.36-.84-1.96-1.81-3.4-2.89-4.33l.36-.48c1.41.72,2.47,1.41,3.19,2.14Z"/>
    <path class="cls-5" d="M307.17,44.48v.57h-4.34v4.09c1.26.51,2.2,1.05,2.77,1.66.57.69.87,1.47.87,2.38,0,.72-.33,1.05-.96,1.05-.36,0-.63-.39-.87-1.2-.36-1.02-.96-1.96-1.81-2.8v14l-1.78.24v-13.82c-1.05,2.53-2.44,5.06-4.12,7.59l-.45-.48c1.81-3.25,3.22-7.47,4.24-12.7h-3.55l-.36-.81h4.24v-6.59l2.62.36c.21.09.33.21.33.36,0,.18-.15.33-.45.39-.3.06-.54.12-.72.18v5.3h1.05l1.17-1.78,2.11,2.02ZM320.48,51.38c.21.12.33.3.33.51,0,.24-.36.36-1.05.36-1.39,2.26-2.74,4.12-4.06,5.57,0,.03.03.03.03.03,2.32,2.05,5.12,3.64,8.4,4.73l-.12.48c-1.05.06-1.81.51-2.26,1.41-3.1-1.66-5.48-3.49-7.13-5.54-.39.39-.78.72-1.14,1.02-2.47,1.99-5.42,3.49-8.88,4.52l-.24-.48c3.34-1.32,6.2-3.16,8.55-5.57.24-.27.48-.54.72-.78-1.45-1.99-2.5-4.39-3.16-7.16h.48c.84,2.41,2.02,4.45,3.52,6.11,1.51-1.93,2.74-4.06,3.76-6.47,1.51.84,2.26,1.26,2.26,1.26ZM313.7,45.78c.18.12.3.21.3.33,0,.18-.24.3-.72.39l-.45.09c-1.81,2.17-3.79,3.85-6.02,5.06l-.21-.48c1.96-1.75,3.55-3.85,4.82-6.35,1.51.66,2.29.96,2.29.96ZM316.72,37.95c.21.09.33.24.33.42s-.15.33-.42.39c-.33.06-.57.12-.75.18v3.88h4.12l1.29-1.78,2.47,2.02v.57h-16.35l-.36-.81h6.95v-5.3l2.71.42ZM322.53,47.86c.48.54.75,1.08.75,1.69,0,.87-.33,1.29-.93,1.29-.27,0-.54-.21-.81-.69-1.29-2.05-2.86-3.64-4.73-4.85l.24-.48c2.53.84,4.34,1.84,5.48,3.04Z"/>
  </g>
  <g>
    <path class="cls-5" d="M190.33,15.02c-1.54,4.78-2.31,7.18-2.31,7.18-.12.33-.17.62-.17.85s.07.8.22,1.67c.1.67.17,1.12.17,1.4,0,.22-.07.43-.2.64-.13.23-.32.35-.52.35-.17,0-.35-.12-.55-.32-.17-.17-.23-.37-.23-.6,0-.17.05-.55.18-1.14.05-.38.08-.77.08-1.17,0-.43-.1-.82-.28-1.14-.2-.33-.65-.6-1.35-.8v-.32h1.64l3.08-6.74.25.13ZM187.65,16.86c.3.28.45.6.45.97,0,.49-.22.72-.65.72-.17,0-.32-.17-.44-.52-.23-.6-.69-1.15-1.39-1.64l.07-.32c.94.23,1.59.49,1.96.79ZM189.02,13.43c.3.3.45.64.45,1,0,.49-.22.72-.65.72-.18,0-.33-.17-.43-.54-.23-.64-.72-1.19-1.46-1.69l.07-.32c.97.23,1.64.5,2.02.82ZM192,15.74h2.78v-3.66l1.46.2c.12.05.18.12.18.2,0,.17-.07.28-.2.35s-.25.13-.33.17v2.74h2.94l.33-.59.99.64c.17.13.25.22.25.28,0,.1-.18.22-.52.32v5.62l-1.05.2v-.99h-2.94v5.75l-1.1.2v-5.95h-2.94v1.17l-1.04.27v-7.51l1.2.59ZM194.78,20.77v-4.58h-2.94v4.58h2.94ZM195.88,20.77h2.94v-4.58h-2.94v4.58Z"/>
    <path class="cls-5" d="M215.21,14.64c.17.1.27.18.27.25,0,.13-.27.22-.79.27-.97,1.47-1.96,2.84-2.96,4.11l2.39-.05c-.23-.52-.49-.94-.74-1.25l.18-.13c.67.43,1.19.85,1.54,1.29.33.42.5.77.5,1.07,0,.54-.22.79-.65.79-.13,0-.23-.07-.3-.23-.13-.45-.27-.85-.4-1.2l-1.2.23v7.14l-.97.2v-7.16l-1.57.3c-.07.27-.08.4-.08.4-.03.08-.07.12-.12.12-.13,0-.25-.07-.32-.23,0,0-.25-.4-.72-1.2l1.97-.05c1.14-1.92,2.06-3.68,2.79-5.25l1.17.6ZM211.58,21.53c.2.07.3.13.3.22,0,.17-.22.32-.65.47-.13.99-.32,1.77-.55,2.36s-.59,1.14-1.09,1.69l-.2-.2c.3-.64.52-1.3.67-2.02.13-.74.22-1.66.25-2.74l1.27.23ZM213.63,12.65c.13.1.2.17.2.22,0,.18-.18.27-.52.27l-1.91,2.61c.05.05.08.08.12.1.4.37.62.69.62.95,0,.49-.2.72-.6.72-.17,0-.3-.07-.37-.2-.5-1.07-1.07-1.86-1.72-2.36l.2-.25c.54.23.97.49,1.34.72l1.41-3.35,1.24.57ZM215.41,24.1c0,.57-.22.85-.65.85-.32,0-.47-.17-.47-.52,0-1.12-.22-2.14-.65-3.08l.27-.07c1,1.2,1.51,2.14,1.51,2.81ZM217.47,13.13h4.93l.25-.52,1.1.59c.17.12.27.2.27.25,0,.12-.22.23-.65.33v3.85l-.97.2v-.38h-2.09v1.37h2.54l.27-.54,1.04.6c.17.12.27.2.27.25,0,.12-.2.23-.59.33v4.37l-.99.2v-.59h-2.54v2.36c0,.17.08.25.25.25h2.63c.17,0,.3-.1.37-.27,0,0,.15-.47.47-1.42h.27v1.24c0,.23.17.4.52.52-.23.52-.57.79-.97.79h-3.66c-.57,0-.85-.27-.85-.79v-2.68h-2.48v.99l-.99.18v-6.46l1.17.65h2.29v-1.37h-2.02v.32l-.97.2v-5.49l1.14.65ZM219.32,20.84v-1.57h-2.48v1.57h2.48ZM219.32,23v-1.71h-2.48v1.71h2.48ZM219.32,14.95v-1.37h-2.02v1.37h2.02ZM219.32,16.98v-1.56h-2.02v1.56h2.02ZM220.31,14.95h2.09v-1.37h-2.09v1.37ZM220.31,16.98h2.09v-1.56h-2.09v1.56ZM220.31,20.84h2.54v-1.57h-2.54v1.57ZM220.31,23h2.54v-1.71h-2.54v1.71Z"/>
    <path class="cls-5" d="M239.05,23.43c.07.07.12.15.12.22,0,.1-.08.13-.22.13h-.57c-1,.84-1.89,1.47-2.64,1.91-.7.37-1.5.74-2.38,1.09l-.13-.32c.84-.5,1.59-1,2.24-1.54.57-.43,1.37-1.22,2.39-2.32.79.57,1.19.84,1.19.84ZM236.06,13.2c.12.05.18.12.18.18,0,.17-.08.3-.22.37-.17.07-.28.12-.38.17v7.58h10.85l.79-1.05,1.37,1.19v.32h-6.99v4.97l-1.05.2v-5.17h-4.97v.85l-1.04.13v-9.93l1.46.2ZM239.34,13.06h5.32l.33-.59.94.64c.15.13.23.22.23.27,0,.1-.15.18-.45.27v6.34l-1.05.2v-.47h-5.49v.59l-1.04.27v-8.09l1.2.59ZM244.65,15.15v-1.64h-5.49v1.64h5.49ZM244.65,17.18v-1.57h-5.49v1.57h5.49ZM244.65,19.27v-1.64h-5.49v1.64h5.49ZM247.13,24.74c.35.38.53.79.53,1.19,0,.47-.18.72-.52.72-.2,0-.4-.17-.6-.47-.94-1.4-2.09-2.51-3.45-3.31l.13-.27c1.79.59,3.09,1.3,3.9,2.14Z"/>
    <path class="cls-5" d="M269.85,17.43c.22.13.33.27.33.4,0,.23-.33.33-.97.33l-2.32,7.64h3.36l.92-1.12,1.64,1.24v.33h-14.84l-.2-.45h8.58l1.94-9.28,1.56.9ZM266.27,12.18c.13.07.2.13.2.23,0,.13-.1.22-.27.27-.2.05-.35.08-.45.12v2.56h3.78l.85-.99,1.57,1.1v.33h-13.33l-.2-.45h6.21v-3.41l1.64.23ZM262.79,20.87c.54,1.24.8,2.29.8,3.16,0,.57-.22.85-.65.85-.23,0-.4-.18-.5-.59-.67-3.21-1.44-5.59-2.31-7.12l.2-.13c1.09,1.25,1.91,2.53,2.46,3.83Z"/>
  </g>
  <g>
    <path class="cls-5" d="M143.64,74.01c0,.14-.05.21-.15.22-.1,0-.2,0-.3,0-.06,0-.13,0-.21,0s-.15.02-.2.05c-.05.02-.11.07-.18.15s-.11.15-.14.2c-.46.76-.91,1.52-1.36,2.28-.45.76-.9,1.52-1.35,2.28,0,.56.01,1.13,0,1.7,0,.57,0,1.14,0,1.7,0,.11.02.24.05.36s.12.19.26.19c.12,0,.24,0,.36-.01.12,0,.24-.01.35-.01.07,0,.13.03.17.07.04.05.06.1.06.17s-.02.11-.07.15c-.05.04-.1.06-.15.06-.27,0-.55,0-.82-.03-.27-.02-.55-.03-.82-.03h-.79c-.26,0-.52,0-.77.03-.11,0-.21.02-.32.02s-.21,0-.32,0c-.17,0-.25-.07-.25-.23,0-.16.08-.24.24-.24.1,0,.19,0,.28.01.09,0,.18.01.26.01.19,0,.31-.03.36-.1s.08-.16.08-.27c0-.11,0-.24,0-.37v-2.42c.01-.27-.02-.52-.1-.73s-.17-.44-.27-.68c-.16-.37-.33-.74-.51-1.1s-.36-.72-.55-1.09c-.15-.3-.31-.6-.47-.91s-.34-.6-.52-.87c-.04-.07-.11-.13-.21-.19-.09-.06-.18-.09-.27-.09-.06,0-.13,0-.2.02-.07.01-.14.02-.21.02s-.13-.02-.19-.07c-.06-.04-.09-.1-.09-.17,0-.14.07-.22.22-.24.16-.02.32-.03.48-.04.16,0,.32-.02.48-.03.23-.03.46-.05.69-.08s.47-.04.7-.04c.11,0,.18.02.23.06.05.04.09.11.14.21.34.79.68,1.58,1.03,2.37.35.79.7,1.57,1.05,2.36.08-.12.2-.33.37-.62.17-.29.35-.62.55-.99.2-.37.39-.73.57-1.1.18-.37.33-.69.44-.98.11-.29.17-.49.17-.62,0-.08-.02-.13-.07-.15s-.11-.03-.18-.03c-.09,0-.17,0-.26.02-.08.01-.17.02-.26.02-.19,0-.29-.08-.29-.25,0-.14.08-.21.24-.21.26,0,.51,0,.77.02.26.01.51.02.77.02.21,0,.42,0,.64-.02.21-.01.42-.02.64-.02.14,0,.21.08.21.24Z"/>
    <path class="cls-5" d="M154.62,78.68c0,1-.18,1.87-.53,2.61-.35.74-.88,1.31-1.57,1.72s-1.55.61-2.57.61-1.86-.21-2.55-.62c-.7-.41-1.23-.98-1.59-1.72-.36-.74-.54-1.59-.54-2.57,0-.69.11-1.33.32-1.94.22-.6.53-1.14.94-1.59.41-.46.9-.82,1.48-1.07.58-.26,1.22-.38,1.94-.38,1.01,0,1.86.21,2.55.63.7.42,1.22,1,1.58,1.75s.54,1.61.54,2.59ZM152.71,78.71c0-.33-.03-.71-.08-1.12-.05-.41-.14-.82-.26-1.22-.12-.41-.29-.78-.5-1.12s-.47-.61-.79-.82c-.31-.21-.69-.31-1.12-.31s-.81.1-1.12.31c-.32.21-.58.48-.8.82s-.39.71-.52,1.12-.23.81-.28,1.22-.09.78-.09,1.12.03.7.09,1.11c.06.4.16.8.29,1.2.13.4.31.77.52,1.1.22.33.48.6.8.79.32.2.69.3,1.11.3s.82-.1,1.13-.3c.31-.2.57-.46.78-.79.21-.33.37-.69.5-1.08.12-.4.21-.8.26-1.2.05-.41.08-.78.08-1.13Z"/>
    <path class="cls-5" d="M165.99,83.3v.05s0,.04-.01.06c-.04.07-.11.11-.21.11h-2c-.25,0-.43-.04-.55-.12-.12-.08-.24-.22-.38-.41-.5-.72-1.01-1.44-1.51-2.16s-1.01-1.44-1.52-2.16l-.17.13c0,.66.01,1.32.01,1.99v1.97c0,.08.02.16.06.23.04.07.1.11.19.11.11,0,.23,0,.34-.01.11,0,.23-.01.34-.01.06,0,.11.03.14.08s.05.11.05.16c0,.04-.02.09-.05.15s-.08.09-.13.09c-.21,0-.42,0-.63-.02-.21-.01-.41-.02-.62-.02-.3,0-.6,0-.89,0-.3,0-.59,0-.88.02-.11,0-.23.02-.34.02-.11,0-.23,0-.36,0-.08,0-.14-.03-.17-.08-.04-.05-.05-.11-.05-.19,0-.14.07-.21.23-.21.11,0,.21,0,.31.01.1,0,.2.01.3.01.18,0,.28-.05.32-.15s.05-.22.05-.36v-7.61c0-.3-.02-.5-.07-.6-.05-.1-.14-.15-.27-.16-.13,0-.33,0-.58,0-.05,0-.11-.02-.17-.05s-.09-.08-.09-.14.01-.12.04-.17.07-.08.15-.08c.19,0,.39,0,.58.02.19.01.38.02.58.02h1.84c.12,0,.25,0,.38-.02s.25-.02.38-.02c.05,0,.09.03.13.07.03.05.05.1.05.14s-.02.09-.05.15c-.03.05-.07.08-.13.08-.12,0-.23,0-.34,0-.11,0-.23,0-.34,0-.09,0-.15.04-.2.11-.04.07-.07.15-.07.23,0,.32,0,.64,0,.96,0,.32,0,.64,0,.96v1.79c.63-.6,1.23-1.21,1.82-1.83.59-.62,1.14-1.27,1.67-1.95.1-.11.16-.25.2-.41.04-.12.07-.2.11-.22.04-.03.11-.04.24-.04h.4c.2.01.41,0,.61,0,.2,0,.41-.01.61-.01.15,0,.23.08.23.23,0,.11-.04.18-.11.21-.07.02-.15.03-.24.03-.18,0-.35.04-.51.11-.16.08-.31.17-.44.3l-3.15,3c.63.88,1.27,1.75,1.93,2.61.66.86,1.32,1.7,1.99,2.54.12.15.26.24.42.28.16.04.3.06.41.07.11.01.17.06.17.15Z"/>
    <path class="cls-5" d="M177.17,83.38c0,.13-.08.2-.25.2h-.16c-.05,0-.11,0-.17-.01-.22-.02-.45-.03-.68-.03h-1.57c-.29,0-.59,0-.89.03-.04,0-.07.01-.11.01h-.11c-.12,0-.19-.06-.19-.18,0-.11.04-.17.11-.19.07-.02.16-.03.26-.02.1,0,.18.01.24.01.16,0,.28-.03.35-.1.07-.07.11-.18.11-.35,0-.1-.03-.27-.09-.51-.06-.24-.14-.51-.23-.8s-.17-.56-.26-.81c-.08-.25-.14-.43-.18-.54h-3.38c-.02.05-.06.17-.12.36-.06.18-.13.4-.22.65-.08.25-.17.49-.25.73-.08.24-.15.44-.2.62-.05.17-.08.28-.08.31,0,.17.04.28.13.34s.2.09.33.1c.13,0,.26,0,.38,0,.04,0,.08.03.11.09.03.06.04.11.04.15,0,.05-.02.09-.06.12-.04.03-.08.04-.13.04-.29,0-.58,0-.87-.02-.29-.01-.57-.02-.85-.02-.14,0-.28,0-.42.01-.14,0-.29.01-.44.01-.04,0-.09-.02-.13-.05-.04-.04-.07-.08-.07-.12,0-.1.04-.16.11-.18s.15-.04.25-.03c.09,0,.17,0,.23,0,.11,0,.21-.05.28-.14.07-.09.13-.18.17-.27.52-1.31,1.01-2.62,1.48-3.94.47-1.32.92-2.64,1.36-3.98.04-.1.08-.23.13-.41.05-.18.08-.31.08-.4,0-.05-.01-.1-.03-.14-.02-.04-.03-.08-.03-.11s.04-.06.13-.08.18-.03.28-.04c.1,0,.16-.01.19-.01.19-.03.37-.05.55-.08.18-.03.36-.05.55-.07l3.24,9.15c.07.21.17.35.28.4.12.06.28.09.48.09.08,0,.15.01.2.03.05.02.08.08.08.18ZM173.19,79.58c-.25-.75-.5-1.5-.76-2.24-.26-.74-.51-1.49-.75-2.24-.26.75-.51,1.5-.76,2.24-.25.74-.51,1.49-.76,2.24h3.03Z"/>
    <path class="cls-5" d="M187.42,76.22c0,.09-.02.17-.07.25-.04.07-.11.11-.21.11-.14,0-.24-.03-.28-.09-.05-.06-.09-.15-.13-.26-.03-.12-.07-.28-.13-.46-.06-.18-.12-.36-.19-.54-.07-.18-.13-.32-.21-.42-.04-.05-.07-.1-.12-.15-.04-.05-.09-.09-.13-.14-.06-.08-.17-.13-.33-.17-.16-.03-.32-.05-.49-.05s-.3,0-.4,0h-.37c-.13,0-.25.03-.34.09-.1.06-.15.17-.16.32,0,.3-.01.61-.01.92v.93c0,1.01,0,2.01,0,3.02,0,1.01,0,2.01,0,3.02,0,.11.02.23.05.37.03.14.12.21.26.21.13,0,.26,0,.39-.01.13,0,.26-.01.39-.01.07,0,.12.03.16.09.04.06.05.11.05.17,0,.16-.08.24-.23.24-.1,0-.2,0-.3-.01-.1,0-.2-.02-.3-.03-.17-.02-.34-.03-.5-.03h-1.39c-.29,0-.58,0-.87.03-.11,0-.21.02-.32.03-.11,0-.22.01-.32.01-.08,0-.14-.03-.19-.08-.04-.05-.07-.11-.07-.18,0-.1.04-.16.12-.18.08-.02.15-.03.23-.03.1,0,.19,0,.27,0,.08,0,.17,0,.26,0,.23,0,.36-.05.39-.16.03-.11.05-.26.05-.45v-7.39c0-.34-.02-.58-.05-.7-.04-.12-.13-.18-.28-.18-.15,0-.4,0-.74,0-.11,0-.27,0-.47.01-.2,0-.35.04-.44.09-.11.06-.21.14-.28.24-.07.1-.13.21-.17.34-.07.2-.14.41-.21.62-.07.21-.13.42-.21.62-.04.12-.08.21-.13.27-.05.06-.15.09-.29.09-.17,0-.25-.09-.25-.26,0-.23.02-.49.07-.79s.08-.57.09-.83c0-.14.01-.28,0-.43,0-.15,0-.28.03-.42,0-.06.04-.09.09-.09.1,0,.2.01.3.04.1.03.2.05.3.07.11,0,.21.02.32.02s.22.01.34.02c.47,0,.95.02,1.46.02.51,0,.99,0,1.45,0,.52,0,1.07,0,1.64-.01.57,0,1.12-.01,1.64-.01h.17c.06,0,.11,0,.17-.01.1-.02.19-.04.28-.08s.19-.05.28-.05c.04,0,.07.02.09.07.03.12.04.27.05.43s.02.31.03.43c.03.25.06.5.09.76.03.26.05.52.05.77Z"/>
    <path class="cls-5" d="M196,81.08c0,.51-.11.94-.34,1.28-.23.34-.53.61-.91.8s-.78.33-1.22.41c-.44.08-.87.12-1.3.12-.33,0-.64-.05-.94-.14-.3-.09-.6-.2-.91-.31-.15-.05-.3-.09-.44-.1s-.3-.02-.46-.02c-.03-.21-.05-.42-.08-.63-.03-.21-.06-.42-.09-.63-.02-.15-.04-.3-.07-.44-.03-.14-.04-.28-.04-.42,0-.12.02-.23.07-.3.05-.08.14-.12.27-.12.12,0,.22.02.28.07s.12.13.15.25c.06.16.11.32.15.49s.09.34.15.5c.15.41.4.75.73.99.34.25.74.37,1.2.37.62,0,1.09-.18,1.42-.54s.5-.84.5-1.45c0-.35-.08-.65-.23-.88s-.34-.43-.58-.6c-.24-.17-.49-.33-.77-.48-.26-.14-.52-.27-.78-.4-.26-.12-.52-.25-.78-.38-.28-.15-.56-.34-.83-.56-.27-.23-.49-.49-.66-.78-.17-.3-.26-.62-.26-.96,0-.58.15-1.06.46-1.44.3-.38.7-.66,1.18-.85.48-.18.98-.28,1.5-.28.34,0,.66.05.97.14.31.09.62.2.92.32.1.04.19.06.27.08.08.02.17.03.27.03.07,0,.14,0,.2,0,.06,0,.12-.01.18-.02.03.28.06.56.09.85.04.28.07.56.11.85,0,.04.02.09.02.14,0,.05,0,.09,0,.14,0,.12-.03.24-.08.34s-.15.15-.3.15c-.11,0-.2-.03-.25-.08-.05-.05-.1-.13-.15-.23-.11-.27-.21-.54-.3-.81-.1-.27-.24-.51-.42-.74-.19-.25-.44-.43-.73-.55-.29-.12-.59-.18-.9-.18s-.55.08-.75.25c-.2.16-.35.37-.45.63-.1.26-.15.52-.15.79,0,.42.11.75.34.99s.5.45.84.64c.19.1.37.19.56.28s.38.18.56.27c.44.2.87.45,1.29.73s.77.63,1.05,1.02.42.86.42,1.4Z"/>
    <path class="cls-5" d="M207.32,74.05c0,.06-.02.12-.06.18-.04.06-.09.09-.17.09-.11,0-.23,0-.34,0s-.23,0-.34,0-.18.06-.21.17-.04.21-.04.3c0,.04,0,.09,0,.14,0,.05,0,.09,0,.14,0,.8,0,1.6,0,2.4,0,.79,0,1.59,0,2.38,0,1.16-.29,2.08-.86,2.76-.57.68-1.46,1.01-2.67,1.01s-2.12-.29-2.78-.86c-.66-.57-.99-1.48-.99-2.71v-.6c0-.76,0-1.52,0-2.28,0-.76,0-1.53,0-2.3,0-.08,0-.19-.03-.32-.02-.14-.08-.21-.19-.22-.11,0-.23,0-.35,0-.12,0-.24.01-.35.01-.06,0-.12-.02-.17-.07-.05-.05-.08-.1-.08-.17,0-.07.02-.13.07-.18.05-.05.11-.08.18-.08.11,0,.21,0,.31.01.1,0,.2.02.3.03.2,0,.41.02.61.02s.4,0,.6,0h.59c.19,0,.38,0,.57-.01.12,0,.25-.02.36-.03.12-.01.24-.02.35-.02.07,0,.13.03.17.08.04.05.06.11.06.18,0,.06-.02.12-.06.17-.04.05-.09.07-.17.07-.11,0-.23,0-.34-.01-.11,0-.22-.01-.34-.01-.09,0-.15.04-.17.11-.03.07-.04.15-.05.22,0,.14-.01.28,0,.42,0,.14,0,.28,0,.42,0,.79,0,1.59-.02,2.38-.01.79-.02,1.58-.02,2.38,0,.38.02.74.05,1.08s.11.64.23.91c.12.27.32.47.59.62.27.15.64.22,1.12.22.64,0,1.14-.15,1.52-.44.38-.3.65-.68.82-1.17s.25-1,.25-1.57c0-.87-.02-1.75-.05-2.62-.04-.87-.05-1.75-.05-2.62,0-.13-.03-.22-.09-.27s-.15-.07-.28-.07c-.09,0-.17,0-.26.01-.08,0-.17.01-.27.01-.06,0-.12-.02-.17-.07s-.08-.1-.08-.17.02-.13.07-.18c.05-.05.11-.08.18-.08.14,0,.28,0,.41.02.13.01.27.02.41.03.09,0,.18.01.26.01h.56c.1,0,.2,0,.3-.01.14,0,.28,0,.42-.03.14-.02.28-.03.42-.03.16,0,.24.08.24.24Z"/>
    <path class="cls-5" d="M223.57,74.05c0,.06-.02.12-.05.17-.04.05-.09.08-.16.08-.11,0-.23,0-.34-.01-.11,0-.23-.01-.35-.01-.09,0-.15.04-.17.12-.03.08-.04.15-.04.23,0,.56,0,1.13,0,1.69,0,.56,0,1.13,0,1.7,0,.8,0,1.6,0,2.4,0,.8,0,1.6,0,2.4,0,.07.01.15.04.23.03.08.08.12.17.12.12,0,.24,0,.35-.01.11,0,.22-.01.34-.01.07,0,.12.03.15.09.03.06.04.12.04.18,0,.13-.07.2-.21.2-.07,0-.14,0-.21-.01-.07,0-.14-.01-.21-.01-.13-.02-.26-.03-.4-.03h-1.32c-.3,0-.61,0-.92.03-.09,0-.18,0-.27.01-.09,0-.19.01-.28.01-.09,0-.15-.03-.18-.08s-.05-.11-.05-.19.03-.12.08-.16.11-.05.17-.05c.1,0,.19,0,.27.01.08,0,.17.01.26.01.13,0,.22-.02.27-.07s.07-.14.07-.27v-4.12h-4.35v4.14c0,.13.03.22.08.27s.14.07.26.07c.09,0,.18,0,.27-.01.09,0,.18-.01.26-.01.07,0,.13.02.18.05.05.03.08.09.08.17,0,.17-.08.25-.24.25-.33,0-.65-.01-.97-.03s-.64-.03-.96-.03h-.48c-.16,0-.32,0-.48.01-.11,0-.23.02-.34.03s-.22.02-.34.02c-.06,0-.11-.03-.14-.09-.03-.06-.05-.11-.05-.15s.02-.09.05-.15.08-.08.13-.08c.11,0,.23,0,.34.01.11,0,.22.01.34.01.1,0,.16-.04.19-.12.03-.08.04-.15.04-.23v-8.21c0-.07-.01-.15-.04-.23-.03-.08-.09-.12-.19-.12-.11,0-.23,0-.34.01-.11,0-.22.01-.34.01-.14,0-.21-.08-.21-.24,0-.06.02-.12.05-.17.04-.05.09-.08.16-.08.23,0,.46,0,.68.03.23.02.45.03.68.03.36,0,.73,0,1.09-.03.37-.02.73-.03,1.09-.03.17,0,.25.08.25.25,0,.11-.05.18-.14.2-.09.02-.18.03-.26.03-.06,0-.12,0-.18,0-.06,0-.13,0-.2,0-.11,0-.2.04-.26.11-.06.07-.09.16-.09.28v3.59h4.35v-3.64c0-.13-.02-.22-.07-.27s-.14-.07-.27-.07c-.09,0-.17,0-.26.01-.08,0-.17.01-.27.01-.05,0-.11-.02-.16-.07-.06-.04-.09-.1-.09-.16,0-.17.08-.25.25-.25.11,0,.21,0,.32.01.11,0,.21.02.32.03.2,0,.41.02.61.02.2,0,.41,0,.61,0,.29,0,.59-.01.88-.03.3-.02.59-.03.88-.03.07,0,.12.02.16.07.04.04.05.1.05.16Z"/>
    <path class="cls-5" d="M229.62,74.08c0,.15-.07.23-.21.23-.11,0-.21,0-.32,0-.11,0-.22,0-.32,0-.09,0-.15.04-.18.11-.04.07-.05.15-.05.23,0,.31,0,.62,0,.93,0,.31,0,.62,0,.93,0,.97,0,1.94,0,2.92,0,.98,0,1.95,0,2.92,0,.06,0,.16-.01.29,0,.13,0,.25.03.36.03.11.09.17.19.17.11,0,.23,0,.34-.01.11,0,.23-.01.34-.01.06,0,.11.03.13.07.03.05.04.1.04.17s-.02.12-.06.17c-.04.05-.09.07-.16.07-.3,0-.6,0-.89-.01-.3,0-.59-.01-.89-.01s-.6,0-.9.01c-.3,0-.6.01-.9.01-.09,0-.15-.02-.17-.05-.03-.04-.04-.09-.04-.17,0-.07.02-.13.05-.18.03-.05.08-.07.15-.07.1,0,.19,0,.29.01.1,0,.19.01.28.01.12,0,.21-.04.25-.12.04-.08.07-.17.08-.28,0-.11.01-.21.01-.28v-7.6c.01-.08,0-.2-.01-.35s-.08-.24-.18-.25h-.15c-.09,0-.17,0-.26.01-.08,0-.17.01-.26.01-.17,0-.25-.08-.25-.25,0-.06.02-.11.06-.16.04-.04.09-.07.15-.07.38,0,.76,0,1.13.03.37.02.75.03,1.13.03.23,0,.46,0,.69-.03.23-.02.47-.03.7-.03.07,0,.12.03.15.08.03.05.04.11.04.17Z"/>
    <path class="cls-5" d="M241.64,79.49c0,.07-.02.14-.05.2-.03.06-.09.09-.18.09h-.67v2.74c-.31.11-.61.22-.91.35-.3.13-.6.26-.9.4-.3.14-.62.23-.97.27-.35.04-.69.05-1.03.05-.29,0-.6-.03-.94-.09-.34-.06-.66-.15-.98-.27s-.6-.26-.83-.43c-.64-.47-1.11-1.06-1.41-1.79-.3-.72-.44-1.47-.44-2.24,0-.7.11-1.35.32-1.96.22-.61.53-1.14.94-1.6.41-.46.9-.82,1.48-1.08.58-.26,1.23-.39,1.95-.39.57,0,1.14.09,1.69.26.08.03.2.07.36.13.16.06.33.12.49.18.16.06.27.09.32.09.13,0,.22-.05.28-.14.05-.1.1-.19.15-.29.05-.1.12-.15.22-.15.05,0,.1.01.15.04s.07.07.07.13c0,.41,0,.81.02,1.2.01.4.02.8.02,1.21,0,.12-.04.22-.13.3-.08.08-.19.12-.31.12-.15,0-.25-.03-.31-.1-.06-.07-.11-.17-.15-.3-.22-.68-.56-1.23-1.03-1.64-.46-.41-1.07-.62-1.81-.62-.35,0-.67.08-.97.25-.29.17-.54.39-.76.66-.22.27-.4.56-.55.88-.15.32-.26.63-.34.93s-.14.61-.17.93c-.04.32-.05.64-.05.95s.02.62.05.93.1.61.19.91c.11.41.29.79.52,1.16.23.37.52.68.87.91.35.24.75.36,1.21.36.17,0,.36-.02.58-.07.22-.04.42-.11.62-.2.2-.09.36-.21.5-.35.13-.15.2-.32.2-.54v-1.75c0-.07-.02-.14-.06-.21-.04-.07-.1-.11-.18-.11-.12,0-.25,0-.38.02-.13.01-.25.02-.38.02-.07,0-.13-.04-.18-.13s-.07-.16-.07-.22.03-.11.08-.16c.05-.04.11-.07.17-.07.12,0,.25,0,.38,0s.25,0,.38,0c.3,0,.6,0,.89,0,.3,0,.59-.01.89-.02.16,0,.32-.02.48-.03.16-.01.32-.02.48-.02.07,0,.12.03.15.09.03.06.04.12.04.18Z"/>
    <path class="cls-5" d="M253.63,74.05c0,.06-.02.12-.05.17-.04.05-.09.08-.16.08-.11,0-.23,0-.34-.01-.11,0-.23-.01-.35-.01-.09,0-.15.04-.17.12-.03.08-.04.15-.04.23,0,.56,0,1.13,0,1.69,0,.56,0,1.13,0,1.7,0,.8,0,1.6,0,2.4,0,.8,0,1.6,0,2.4,0,.07.01.15.04.23.03.08.08.12.17.12.12,0,.24,0,.35-.01.11,0,.22-.01.34-.01.07,0,.12.03.15.09.03.06.04.12.04.18,0,.13-.07.2-.21.2-.07,0-.14,0-.21-.01-.07,0-.14-.01-.21-.01-.13-.02-.26-.03-.4-.03h-1.32c-.3,0-.61,0-.92.03-.09,0-.18,0-.27.01-.09,0-.19.01-.28.01-.09,0-.15-.03-.18-.08s-.05-.11-.05-.19.03-.12.08-.16.11-.05.17-.05c.1,0,.19,0,.27.01.08,0,.17.01.26.01.13,0,.22-.02.27-.07s.07-.14.07-.27v-4.12h-4.35v4.14c0,.13.03.22.08.27s.14.07.26.07c.09,0,.18,0,.27-.01.09,0,.18-.01.26-.01.07,0,.13.02.18.05.05.03.08.09.08.17,0,.17-.08.25-.24.25-.33,0-.65-.01-.97-.03s-.64-.03-.96-.03h-.48c-.16,0-.32,0-.48.01-.11,0-.23.02-.34.03-.11.01-.22.02-.34.02-.06,0-.11-.03-.14-.09-.03-.06-.05-.11-.05-.15s.02-.09.05-.15.08-.08.13-.08c.11,0,.23,0,.34.01.11,0,.22.01.34.01.1,0,.16-.04.19-.12.03-.08.04-.15.04-.23v-8.21c0-.07-.01-.15-.04-.23-.03-.08-.09-.12-.19-.12-.11,0-.23,0-.34.01-.11,0-.22.01-.34.01-.14,0-.21-.08-.21-.24,0-.06.02-.12.05-.17.04-.05.09-.08.16-.08.23,0,.46,0,.68.03.23.02.45.03.68.03.36,0,.73,0,1.09-.03.37-.02.73-.03,1.09-.03.17,0,.25.08.25.25,0,.11-.05.18-.14.2-.09.02-.18.03-.26.03-.06,0-.12,0-.18,0-.06,0-.13,0-.2,0-.11,0-.2.04-.26.11-.06.07-.09.16-.09.28v3.59h4.35v-3.64c0-.13-.02-.22-.07-.27s-.14-.07-.27-.07c-.09,0-.17,0-.26.01-.08,0-.17.01-.27.01-.05,0-.11-.02-.16-.07-.06-.04-.09-.1-.09-.16,0-.17.08-.25.25-.25.11,0,.21,0,.32.01.11,0,.21.02.32.03.2,0,.41.02.61.02.2,0,.41,0,.61,0,.29,0,.59-.01.88-.03.3-.02.59-.03.88-.03.07,0,.12.02.16.07.04.04.05.1.05.16Z"/>
    <path class="cls-5" d="M266.92,81.08c0,.51-.11.94-.34,1.28-.23.34-.53.61-.91.8s-.78.33-1.22.41c-.44.08-.87.12-1.3.12-.33,0-.64-.05-.94-.14-.3-.09-.6-.2-.91-.31-.15-.05-.3-.09-.44-.1s-.3-.02-.46-.02c-.03-.21-.05-.42-.08-.63-.03-.21-.06-.42-.09-.63-.02-.15-.04-.3-.07-.44-.03-.14-.04-.28-.04-.42,0-.12.02-.23.07-.3.05-.08.14-.12.27-.12.12,0,.22.02.28.07.07.05.12.13.15.25.06.16.11.32.15.49s.09.34.15.5c.15.41.4.75.73.99.34.25.74.37,1.2.37.62,0,1.09-.18,1.42-.54s.5-.84.5-1.45c0-.35-.08-.65-.23-.88s-.34-.43-.58-.6c-.24-.17-.49-.33-.77-.48-.26-.14-.52-.27-.78-.4-.26-.12-.52-.25-.78-.38-.28-.15-.56-.34-.83-.56-.27-.23-.49-.49-.66-.78-.17-.3-.26-.62-.26-.96,0-.58.15-1.06.46-1.44.3-.38.7-.66,1.18-.85.48-.18.98-.28,1.5-.28.34,0,.66.05.97.14.31.09.62.2.92.32.1.04.19.06.27.08.08.02.17.03.27.03.07,0,.14,0,.2,0,.06,0,.12-.01.18-.02.03.28.06.56.09.85.04.28.07.56.11.85,0,.04.02.09.02.14,0,.05,0,.09,0,.14,0,.12-.03.24-.08.34s-.15.15-.3.15c-.11,0-.2-.03-.25-.08-.05-.05-.1-.13-.15-.23-.11-.27-.21-.54-.3-.81-.1-.27-.24-.51-.42-.74-.19-.25-.44-.43-.73-.55-.29-.12-.59-.18-.9-.18s-.55.08-.75.25c-.2.16-.35.37-.45.63-.1.26-.15.52-.15.79,0,.42.11.75.34.99s.5.45.84.64c.19.1.37.19.56.28s.38.18.56.27c.44.2.87.45,1.29.73s.77.63,1.05,1.02.42.86.42,1.4Z"/>
    <path class="cls-5" d="M277.77,81.29s-.02.11-.07.19c-.04.08-.08.14-.09.18-.11.2-.29.42-.53.64-.24.22-.46.4-.66.54-.42.29-.85.48-1.31.57-.46.09-.94.13-1.43.13-.96,0-1.78-.2-2.46-.6-.68-.4-1.2-.96-1.56-1.68-.36-.72-.54-1.55-.54-2.49s.17-1.78.52-2.53c.34-.75.85-1.35,1.53-1.79.68-.45,1.5-.67,2.48-.67.44,0,.82.05,1.13.16.31.11.66.23,1.05.37.18.06.37.11.56.14.19.03.37.06.57.07,0,.19.02.39.04.59.02.2.04.4.07.6.02.17.05.34.09.52.04.18.07.35.07.53,0,.17-.06.29-.18.37-.12.08-.25.12-.4.12-.25,0-.42-.1-.52-.3-.03-.07-.04-.15-.05-.23,0-.08-.02-.16-.04-.22-.06-.28-.17-.59-.32-.92-.15-.33-.34-.59-.55-.79-.17-.15-.4-.28-.69-.4s-.55-.18-.78-.18-.43.05-.62.15c-.19.1-.37.22-.55.36-.38.32-.68.7-.9,1.14-.22.44-.37.91-.46,1.41-.09.5-.13.99-.13,1.46,0,.32.02.63.06.95.04.31.1.62.19.93.12.42.3.81.54,1.17.23.37.52.66.87.89.35.23.75.34,1.21.34.65,0,1.25-.16,1.78-.49s.98-.75,1.33-1.28c.05-.09.11-.16.16-.23.06-.07.14-.1.26-.1s.2.04.26.13c.06.09.09.18.09.28Z"/>
    <path class="cls-5" d="M289.71,74.05c0,.06-.02.12-.05.17-.04.05-.09.08-.16.08-.11,0-.23,0-.34-.01-.11,0-.23-.01-.35-.01-.09,0-.15.04-.17.12-.03.08-.04.15-.04.23,0,.56,0,1.13,0,1.69,0,.56,0,1.13,0,1.7,0,.8,0,1.6,0,2.4,0,.8,0,1.6,0,2.4,0,.07.01.15.04.23.03.08.08.12.17.12.12,0,.24,0,.35-.01.11,0,.22-.01.34-.01.07,0,.12.03.15.09.03.06.04.12.04.18,0,.13-.07.2-.21.2-.07,0-.14,0-.21-.01-.07,0-.14-.01-.21-.01-.13-.02-.26-.03-.4-.03h-1.32c-.3,0-.61,0-.92.03-.09,0-.18,0-.27.01-.09,0-.19.01-.28.01-.09,0-.15-.03-.18-.08s-.05-.11-.05-.19.03-.12.08-.16.11-.05.17-.05c.1,0,.19,0,.27.01.08,0,.17.01.26.01.13,0,.22-.02.27-.07s.07-.14.07-.27v-4.12h-4.35v4.14c0,.13.03.22.08.27s.14.07.26.07c.09,0,.18,0,.27-.01.09,0,.18-.01.26-.01.07,0,.13.02.18.05.05.03.08.09.08.17,0,.17-.08.25-.24.25-.33,0-.65-.01-.97-.03s-.64-.03-.96-.03h-.48c-.16,0-.32,0-.48.01-.11,0-.23.02-.34.03s-.22.02-.34.02c-.06,0-.11-.03-.14-.09-.03-.06-.05-.11-.05-.15s.02-.09.05-.15.08-.08.13-.08c.11,0,.23,0,.34.01.11,0,.22.01.34.01.1,0,.16-.04.19-.12.03-.08.04-.15.04-.23v-8.21c0-.07-.01-.15-.04-.23-.03-.08-.09-.12-.19-.12-.11,0-.23,0-.34.01-.11,0-.22.01-.34.01-.14,0-.21-.08-.21-.24,0-.06.02-.12.05-.17.04-.05.09-.08.16-.08.23,0,.46,0,.68.03.23.02.45.03.68.03.36,0,.73,0,1.09-.03.37-.02.73-.03,1.09-.03.17,0,.25.08.25.25,0,.11-.05.18-.14.2-.09.02-.18.03-.26.03-.06,0-.12,0-.18,0-.06,0-.13,0-.2,0-.11,0-.2.04-.26.11-.06.07-.09.16-.09.28v3.59h4.35v-3.64c0-.13-.02-.22-.07-.27s-.14-.07-.27-.07c-.09,0-.17,0-.26.01-.08,0-.17.01-.27.01-.05,0-.11-.02-.16-.07-.06-.04-.09-.1-.09-.16,0-.17.08-.25.25-.25.11,0,.21,0,.32.01.11,0,.21.02.32.03.2,0,.41.02.61.02.2,0,.41,0,.61,0,.29,0,.59-.01.88-.03.3-.02.59-.03.88-.03.07,0,.12.02.16.07.04.04.05.1.05.16Z"/>
    <path class="cls-5" d="M301.28,78.68c0,1-.18,1.87-.53,2.61-.35.74-.88,1.31-1.57,1.72s-1.55.61-2.57.61-1.86-.21-2.55-.62-1.23-.98-1.59-1.72c-.36-.74-.54-1.59-.54-2.57,0-.69.11-1.33.32-1.94.22-.6.53-1.14.94-1.59s.9-.82,1.48-1.07c.58-.26,1.22-.38,1.94-.38,1.01,0,1.86.21,2.55.63.7.42,1.22,1,1.58,1.75s.54,1.61.54,2.59ZM299.36,78.71c0-.33-.03-.71-.08-1.12s-.14-.82-.27-1.22c-.12-.41-.29-.78-.5-1.12-.21-.34-.47-.61-.79-.82-.31-.21-.69-.31-1.12-.31s-.81.1-1.12.31c-.32.21-.59.48-.8.82s-.39.71-.52,1.12c-.13.41-.23.81-.28,1.22-.06.41-.09.78-.09,1.12s.03.7.09,1.11.16.8.29,1.2.31.77.52,1.1c.22.33.48.6.8.79.32.2.69.3,1.11.3s.82-.1,1.13-.3c.31-.2.57-.46.78-.79.21-.33.37-.69.5-1.08.12-.4.21-.8.27-1.2s.08-.78.08-1.13Z"/>
    <path class="cls-5" d="M313.19,78.68c0,1-.18,1.87-.53,2.61-.35.74-.88,1.31-1.57,1.72s-1.55.61-2.57.61-1.86-.21-2.55-.62c-.7-.41-1.23-.98-1.59-1.72-.36-.74-.54-1.59-.54-2.57,0-.69.11-1.33.32-1.94.22-.6.53-1.14.94-1.59s.9-.82,1.48-1.07c.58-.26,1.22-.38,1.94-.38,1.01,0,1.86.21,2.55.63.7.42,1.22,1,1.58,1.75s.54,1.61.54,2.59ZM311.27,78.71c0-.33-.03-.71-.08-1.12s-.14-.82-.27-1.22c-.12-.41-.29-.78-.5-1.12-.21-.34-.47-.61-.79-.82-.31-.21-.69-.31-1.12-.31s-.81.1-1.12.31c-.32.21-.59.48-.8.82s-.39.71-.52,1.12c-.13.41-.23.81-.28,1.22-.06.41-.09.78-.09,1.12s.03.7.09,1.11.16.8.29,1.2.31.77.52,1.1c.22.33.48.6.8.79.32.2.69.3,1.11.3s.82-.1,1.13-.3c.31-.2.57-.46.78-.79.21-.33.37-.69.5-1.08.12-.4.21-.8.27-1.2s.08-.78.08-1.13Z"/>
    <path class="cls-5" d="M323.66,80.47c0,.14,0,.28-.03.42-.02.14-.04.29-.05.44-.04.31-.08.62-.12.93-.04.31-.08.62-.11.93,0,.09-.02.16-.05.22-.04.06-.11.1-.2.11-.09.01-.17.02-.24.02-.11,0-.21,0-.32,0-.11,0-.22,0-.33,0-.56,0-1.11-.01-1.67-.01h-3.75c-.19,0-.38,0-.58.01-.1,0-.19.02-.29.02-.1,0-.19,0-.29,0-.08,0-.15-.02-.21-.07-.06-.04-.09-.11-.09-.18,0-.09.03-.15.09-.2s.12-.07.19-.07.14,0,.22.01c.08,0,.15.01.22.01.14,0,.25-.02.33-.06.08-.04.12-.14.12-.3v-4.11c0-1.37,0-2.74-.01-4.1,0-.11-.02-.17-.06-.21-.04-.03-.11-.05-.21-.05s-.2,0-.3.01c-.1,0-.21.01-.31.01-.06,0-.12-.02-.17-.07-.05-.04-.08-.1-.08-.17,0-.17.09-.25.26-.25.1,0,.2,0,.3.01.11,0,.21.02.32.03.21,0,.42.02.63.02.21,0,.42,0,.63,0h.52c.17,0,.34,0,.51-.01.12,0,.24-.02.36-.03.11-.01.23-.02.34-.02.14,0,.21.08.21.23,0,.06-.02.12-.05.18-.04.06-.09.09-.16.09-.11,0-.23,0-.34-.01-.11,0-.23-.01-.35-.01-.1,0-.16.02-.18.07-.02.05-.03.12-.03.21,0,.33,0,.65,0,.97,0,.32,0,.64,0,.97,0,1.02,0,2.05,0,3.08,0,1.03,0,2.06,0,3.08,0,.09.02.17.07.25s.11.13.2.16c.11.03.23.04.36.04h.36c.66,0,1.24-.07,1.72-.2.48-.13.9-.38,1.24-.73s.62-.88.84-1.56c.03-.08.06-.15.11-.22s.11-.1.2-.1c.05,0,.1.02.15.05s.07.08.07.15Z"/>
  </g>
</svg>