<?xml version="1.0" encoding="UTF-8"?>
<svg id="_x32_" xmlns="http://www.w3.org/2000/svg" width="15" height="15" viewBox="0 0 15 15">
  <defs>
    <style>
      .cls-1 {
        fill: #006400;
      }
    </style>
  </defs>
  <path class="cls-1" d="M11.09,0h-5.37l-.27.27-3.77,3.77-.27.27v8.16c0,1.39,1.13,2.52,2.52,2.52h7.17c1.39,0,2.52-1.13,2.52-2.52V2.52C13.6,1.13,12.47,0,11.09,0ZM12.67,12.48c0,.88-.71,1.58-1.58,1.58H3.91c-.88,0-1.58-.71-1.58-1.58v-7.78h2.45c.73,0,1.32-.59,1.32-1.32V.93h4.98c.88,0,1.58.71,1.58,1.58v9.97Z"/>
  <path class="cls-1" d="M5.04,7.41h-.84c-.16,0-.25.1-.25.26v2.16c0,.19.12.31.29.31s.29-.12.29-.31v-.66s0-.02.02-.02h.48c.59,0,.94-.36.94-.87,0-.52-.35-.87-.94-.87ZM5,8.64h-.45s-.02,0-.02-.02v-.68s0-.02.02-.02h.45c.25,0,.39.15.39.37,0,.22-.15.36-.39.36Z"/>
  <path class="cls-1" d="M7.33,7.41h-.64c-.16,0-.25.1-.25.26v2.19c0,.16.1.25.25.25h.64c.58,0,.94-.18,1.08-.62.05-.16.08-.34.08-.73s-.03-.57-.08-.73c-.14-.44-.5-.62-1.08-.62ZM7.85,9.28c-.07.21-.26.31-.53.31h-.27s-.02,0-.02-.02v-1.62s0-.02.02-.02h.27c.27,0,.47.09.53.31.03.09.05.25.05.53,0,.27-.02.43-.05.53Z"/>
  <path class="cls-1" d="M10.58,7.41h-1.31c-.16,0-.25.1-.25.26v2.16c0,.19.12.31.29.31s.29-.12.29-.31v-.77s0-.02.02-.02h.76c.17,0,.27-.1.27-.25s-.1-.25-.27-.25h-.76s-.02,0-.02-.02v-.57s0-.02.02-.02h.96c.16,0,.27-.11.27-.25,0-.15-.11-.25-.27-.25Z"/>
</svg>