<?xml version="1.0" encoding="UTF-8"?>
<svg id="_レイヤー_1" data-name="レイヤー_1" xmlns="http://www.w3.org/2000/svg" width="22" height="22" viewBox="0 0 22 22">
  <defs>
    <style>
      .cls-1 {
        fill: #006400;
      }
    </style>
  </defs>
  <g id="_x32_">
    <g>
      <path class="cls-1" d="M14.33,4h-5.01l-.28.28-3.52,3.52-.28.28v7.6c0,1.3,1.02,2.32,2.32,2.32h6.68c1.3,0,2.32-1.02,2.32-2.32V6.32c.09-1.3-.93-2.32-2.23-2.32ZM15.81,15.59c0,.83-.65,1.48-1.48,1.48h-6.68c-.83,0-1.48-.65-1.48-1.48v-7.23h2.32c.65,0,1.21-.56,1.21-1.21v-2.32h4.64c.83,0,1.48.65,1.48,1.48,0,0,0,9.27,0,9.27Z"/>
      <path class="cls-1" d="M8.68,10.86h-.74c-.19,0-.28.09-.28.28v2.04c0,.19.09.28.28.28s.28-.09.28-.28v-.65h.46c.56,0,.83-.37.83-.83s-.37-.83-.83-.83ZM8.68,11.97h-.37v-.65h.37c.19,0,.37.09.37.37,0,.19-.09.37-.37.37v-.09Z"/>
      <path class="cls-1" d="M10.81,10.86h-.56c-.19,0-.28.09-.28.28v2.04c0,.19,0,.28.28.28h.56c.56,0,.83-.19,1.02-.56v-1.3c-.09-.37-.46-.56-1.02-.56v-.19ZM11.27,12.62c0,.19-.28.28-.46.28h-.28v-1.48h.28c.28,0,.46,0,.46.28v.93Z"/>
      <path class="cls-1" d="M13.87,10.86h-1.21c-.19,0-.28.09-.28.28v2.04c0,.19.09.28.28.28s.28-.09.28-.28v-.74h.74c.19,0,.28-.09.28-.28s0-.28-.28-.28h-.74v-.56h.93c.19,0,.28-.09.28-.28,0-.09-.09-.28-.28-.28v.09Z"/>
    </g>
  </g>
</svg>