<?xml version="1.0" encoding="UTF-8"?>
<svg id="_x32_" xmlns="http://www.w3.org/2000/svg" width="16" height="16" viewBox="0 0 16 16">
  <defs>
    <style>
      .cls-1 {
        fill: #2c4f28;
      }
    </style>
  </defs>
  <path class="cls-1" d="M7.83,8.29c2.29,0,4.15-1.86,4.15-4.15,0-2.29-1.86-4.15-4.15-4.15S3.69,1.86,3.69,4.15c0,2.29,1.86,4.15,4.15,4.15Z"/>
  <path class="cls-1" d="M13.14,12.28c-.19-1.11-1.12-2.64-1.8-3.36-.18-.19-.5-.11-.61-.04-.85.52-1.84.82-2.9.82s-2.06-.3-2.9-.82c-.11-.07-.43-.15-.61.04-.67.72-1.61,2.25-1.8,3.36-.45,2.73,2.46,3.72,5.31,3.72s5.76-.99,5.31-3.72Z"/>
</svg>