<?xml version="1.0" encoding="UTF-8"?>
<svg id="_x32_" xmlns="http://www.w3.org/2000/svg" width="16" height="16" viewBox="0 0 16 16">
  <defs>
    <style>
      .cls-1 {
        stroke: #231815;
        stroke-miterlimit: 10;
        stroke-width: .03px;
      }

      .cls-1, .cls-2 {
        fill: #2c4f28;
      }
    </style>
  </defs>
  <path class="cls-2" d="M14.96,5.85h-3.28l-2.95-2.99c-.19-.2-.46-.31-.73-.31s-.54.11-.73.31l-2.95,2.99H1.04C.47,5.85.01,6.31.01,6.88v6.57h7.15v-3.33c0-.46.37-.83.83-.83s.83.37.83.83v3.33h7.15v-6.57c0-.57-.46-1.03-1.03-1.03ZM2.52,11.14h-.87v-1.6h.87v1.6ZM5.22,11.14h-.87v-1.6h.87v1.6ZM8,7.15c-.68,0-1.23-.55-1.23-1.23s.55-1.23,1.23-1.23,1.23.55,1.23,1.23-.55,1.23-1.23,1.23ZM11.64,11.14h-.87v-1.6h.87v1.6ZM14.34,11.14h-.87v-1.6h.87v1.6Z"/>
  <polyline class="cls-1" points="8 5.15 8 5.91 8.63 5.91"/>
</svg>