<?xml version="1.0" encoding="UTF-8"?>
<svg id="_レイヤー_1" data-name="レイヤー_1" xmlns="http://www.w3.org/2000/svg" width="380" height="75" viewBox="0 0 380 75">
  <defs>
    <style>
      .cls-1 {
        fill: #fff;
      }
    </style>
  </defs>
  <path class="cls-1" d="M67.42,39.22l2.54-13.08.61-2.91c-4.28-1.63-7.33-5.76-7.33-10.6,0-1.21.19-2.37.54-3.46h-10.49l-5.75,29.57c-3.73,19.2,2.93,30.33,20.47,32.37l4.26-21.93c-4.8-.91-5.99-4.13-4.86-9.95Z"/>
  <path class="cls-1" d="M74.59,2.5c-5.59,0-10.13,4.54-10.13,10.13s4.54,10.13,10.13,10.13,10.13-4.54,10.13-10.13-4.54-10.13-10.13-10.13ZM74.59,15.49c-1.58,0-2.86-1.28-2.86-2.86s1.28-2.86,2.86-2.86,2.86,1.28,2.86,2.86-1.28,2.86-2.86,2.86Z"/>
  <path class="cls-1" d="M41.95,9.17h-19.96l-5.84,30.06c-1.13,5.81-3.34,8.9-8.73,9.95l-4.26,21.93c18.4-2.03,29.32-13.17,33.05-32.37l4.35-22.4h0s1.04-2.99,3.39-4.67c2.61-1.87,6.1-2.49,6.1-2.49h-8.1Z"/>
  <path class="cls-1" d="M142.13,16.31l.11-.56c.28-.72,1.33-3.16,3.32-4.59,2.61-1.87,6.1-2.49,6.1-2.49h-8.04,0s-21.15,0-21.15,0l-1.48,7.64h-32.64l-4,20.6h32.36c-3.01,9.74-7.94,12.75-20.76,12.75h-12.47l-4,20.6h12.26c28.09,0,40.43-12.33,46.2-33.35h11.21l4-20.6h-11Z"/>
  <path class="cls-1" d="M227.62,11.2h-64.23l-3.81,19.62h42.73l-.6,3.08c-.95,4.9-4.46,7.08-9.15,7.08h-25.78l1.09,29.7h20.52l-.35-10.44h3.01c14.85,0,29.31-11.7,32.66-28.93l2.45-12.58h0s1.04-3.35,3.4-5.04c2.61-1.87,6.1-2.49,6.1-2.49h-8.03Z"/>
  <path class="cls-1" d="M293.48,56.53h-13.38l-1.72,14.99h13.38l.96-8.38h0s.4-2.43,2.76-4.12c2.61-1.87,6.1-2.49,6.1-2.49h-8.09Z"/>
  <path class="cls-1" d="M371.82,47.87c-1.3.34-2.66.43-3.81.41-11.67-1.98-18.3-11.07-15.64-24.75l1.81-9.34c.26-.72,1.31-3.4,3.33-4.85,2.61-1.87,6.1-2.49,6.1-2.49h-29.16l-3.54,18.22c-2.62,13.45-13.22,21.51-26.63,23.47l-4.55,23.4c12.96-2.17,26.74-8.9,37.03-18.99,5.28,9.95,14.86,17.23,28.46,18.99l10.63-26.94s-1.24,2.13-4.04,2.87Z"/>
  <path class="cls-1" d="M300.25,23.88l3.26-16.74h-63.53l-4.86,25.01c-1.35,6.94-2.09,10.02-4.38,11.35-1.19.99-7.82-1.61-7.82-1.61,0,0,2.21,2.8,2.83,5.54,1.88,8.28-.65,25.08-.65,25.08,5.96-2.17,11.91-5.75,16.95-12.26-1.25,3.92-3.21,7.85-4.92,11.28h16.74c1.74-3.92,3.53-9.53,4.6-14.99h-13.87c3.37-5.46,6.09-12.61,7.93-22.07l2.08-10.72h11.56l-.47,1.33h-10.16l-5.9,30.34h10.23l-3.2,16.46h18.91l3.2-16.46h13.94l5.9-30.34h-13.24l.51-1.19h14.36ZM287.06,30.23c1.67,3.02,2.78,6.25,1.92,9.7-1.95,7.81-9.85,14.14-17.66,14.14s-12.56-6.33-10.61-14.14c.95-3.8,3.46-7.22,6.43-10.28-1.88,5.98,1.57,8.49,1.57,8.49-2.39-11.01,10.9-14.26,12.8-22.66,1.45,3.15-1.58,8.62-2.46,12.16-2.75,11.02,6.06,10.47,8.02,2.58Z"/>
</svg>