<?xml version="1.0" encoding="UTF-8"?>
<svg id="_レイヤー_1" data-name="レイヤー 1" xmlns="http://www.w3.org/2000/svg" width="43.64" height="40" viewBox="0 0 43.64 40">
  <defs>
    <style>
      .cls-1 {
        fill: #f7e752;
      }

      .cls-2 {
        fill: #60a7e0;
      }

      .cls-3 {
        fill: red;
      }

      .cls-4 {
        fill: #ff6a04;
      }

      .cls-5 {
        fill: #036eb8;
      }

      .cls-6 {
        fill: #ffe412;
      }
    </style>
  </defs>
  <g>
    <g>
      <g>
        <path class="cls-5" d="M21.47,10.82c-2.33,4.73,11.28-1.2,11.28-1.2-2.84-2.12-8.82-3.78-11.28,1.2Z"/>
        <path class="cls-5" d="M9.65,10.23s13.89,5.2,11.32.61c-2.71-4.85-8.6-2.87-11.32-.61Z"/>
        <path class="cls-2" d="M23.39,10.35s-6.08,23.39,4.92,26.47c11,3.08,15.94-12.37,11.05-21.48-4.22-7.86-11.73-6.54-15.97-4.99Z"/>
        <path class="cls-2" d="M3.87,16.26c-4.41,9.36,1.34,24.53,12.16,20.88,10.82-3.66,3.01-27.16,3.01-27.16-4.32-1.33-11.37-1.79-15.17,6.28Z"/>
        <path class="cls-5" d="M28.25,10.46c-3.49-1.22-5.1.35-5.16.28,4.37,7.37,3.57,20.58.41,26.04-.05.08-1.18,1.08-.25.65,2.22.91,5.13.28,6.31-.27.65.11,9.03-7.1,4.55-20.22-2.62-6.13-5.13-6.23-5.86-6.48Z"/>
        <path class="cls-5" d="M20.45,10.43c-1.88-.6-4.21-1.14-6.1.03-2.94,2.48-4.77,5.45-5.91,8.73-2.17,7.54,1.94,17.49,6.79,18.57.91.05,3.66.65,6.03-.85-3.75-4.07-6.21-20.57-.8-26.47Z"/>
      </g>
      <path class="cls-2" d="M17.76,11.49c-3.27,5.49-2.43,23.06.67,25.74,2.4,2.07,6.23,1.42,7.61.29,1.38-1.13,4.02-17.73-.44-25.85-1.12-2.04-5.93-3.37-7.84-.18Z"/>
      <path d="M18.05,2.11c-.52.4-.88,1.6-.54,1.98.26.3,1.41.93,2.13-.24-1.14.56-1.41-.17-1.17-.5.46-.64,1.23-.25,1.38-.1,2.37,2.32-1.9,5.66-.88,6.87,1.02,1.21,4.64.77,5.14.17.5-.6.9-3.74-.8-6.65-.94-1.62-3.17-3.15-5.27-1.53Z"/>
    </g>
    <path class="cls-1" d="M27.6,27.23c.15.22.57,1.21.51,1.65-.46.43-2.57.84-3.13.74-.19-.64-.15-1.53-.13-1.78-.8.11-1.65.19-2.59.2-1.57.02-3.01-.13-4.31-.4.03.27-.05,1.33-.31,1.69-.61.16-2.67-.45-3.12-.79.25-.59.99-1.57.99-1.57,0,0-3.56-1.58-4.79-3.18-.1,1.13-.28,9.87,10.4,10.23,10.68.36,11.52-8.6,11.3-9.52-.38.42-1.94,1.81-4.82,2.72Z"/>
    <circle class="cls-1" cx="29.08" cy="20.34" r="1.56"/>
    <path class="cls-1" d="M14.44,18.89c-.86,0-1.55.71-1.55,1.57,0,.86.71,1.55,1.57,1.55.86,0,1.55-.71,1.55-1.57,0-.86-.71-1.55-1.57-1.55Z"/>
  </g>
  <g>
    <path class="cls-3" d="M15.86,4c.1.28.22.23.43.22,1.2-.06,1.27.9.67,1.6-.66.79-1.72,3.4-2.28,3.37-.6-.27-.3-.21-.66-.54-.78-.94-1.74-2.34-1.55-3.66.16-.63.45-1.12,1.13-1.2.21,0,.42.15.6.04.54-.69,1.35-.69,1.65.18Z"/>
    <path class="cls-3" d="M9.42,6.99c.17-.13.1-.38.18-.58.32-.61.88-.7,1.53-.63,1.31.29,2.3,1.73,2.9,2.79.4.71-.14.13-.1.78-.17.54-2.65.58-3.62.92-.87.3-1.74-.1-1.26-1.2.09-.2.18-.29-.05-.48-.7-.59-.42-1.35.42-1.6Z"/>
    <path class="cls-3" d="M10.17,13.1c-.06-.2-.32-.23-.47-.37-.45-.52-.34-1.07-.04-1.65.74-1.12,2.39-1.53,3.6-1.71.81-.12.36.19.99.38.44.36-.65,2.68-.68,3.71-.03.92-.72,1.58-1.57.74-.15-.15-.2-.27-.47-.12-.81.44-1.41-.09-1.35-.97Z"/>
    <path class="cls-3" d="M19.96,8.69c-.22.21-.12.29-.02.48.55,1.07-.29,1.53-1.18,1.28-.99-.28-3.55-.35-3.76-.88-.14-.2-.16-.39-.05-.68.53-1.1,1.42-2.5,2.7-2.88.64-.11,1.2-.05,1.56.53.09.19.04.45.22.56.86.2,1.19.94.52,1.57Z"/>
    <path class="cls-3" d="M16.68,14.53c-.27-.09-.37.04-.5.17-.75.71-1.58.07-1.88-.7-.34-.86-.82-4.01.24-4.11.71-.11.15-.49.88-.27,1.11.33,2.51.71,3.17,1.66.33.43.58,1.05.16,1.51-.28.39-.53.21-.61.52.08.85-.62,1.47-1.46,1.23Z"/>
  </g>
  <path class="cls-6" d="M17.14,8.42c-.19-.09-1,.12-.72.02.08-.03.15-.07.21-.12.08-.07.14-.15.04-.21-.12-.07-.28-.05-.41-.03-.2.03-.4.09-.58.19-.32.17-.55.46-.76.75-.14.19-.14-.11-.1-.23.17-.58.34-1.16.73-1.64.06-.08.14-.23.05-.31-.15-.15-.43.13-.53.24-.02.03-.1.15-.14.15-.05,0,.01-.13.02-.15.02-.23.16-.54-.03-.72-.11-.06-.22-.04-.28.07-.15.13-.21,1.01-.26.62-.07-.16-.14-.47-.37-.41-.42.33.01,1.4.29,2.1.04.1-.09.19-.17.11-.1-.1-.2-.19-.31-.3-.34-.33-.71-.62-1.13-.83-.44-.18-.57.18-.23.45.02.04.2.15.16.14-.28-.09-.59-.13-.88-.09-.13.02-.19.12-.17.25.09.24.44.22.65.28.75.06-.5.07-.4.48.12.14.35.1.51.07.27-.05.51-.06.78-.04.17,0,.34.03.51.07.09.02.09.15,0,.17-.32.08-.63.18-.89.39-.18.14-.34.33-.44.53-.03.07-.1.22-.03.28.08.07.29-.03.34-.08.33-.33-.21.32-.21.53-.03.13.03.22.16.26.28.02.41-.34.57-.52-.04.17-.04.35,0,.52.27.43.4-.5.52-.65.12-.27.28-.55.46-.79.09-.12.28-.07.31.07.11.55.13.9.26,1.45.35.62.62.02.53-.33.09.26.61.9.73.45.02-.08.02-.17,0-.25-.12-.43-.23-.46.14-.32.29.12.52-.22.25-.44-.38-.31-.68-.4-1.07-.69-.18-.17-.39-.25-.24-.38.55-.16,1.16-.18,1.73-.08.16.06.47-.05.28-.23-.15-.14-.35-.21-.54-.26.26,0,1.23-.2.65-.52Z"/>
  <g>
    <path class="cls-4" d="M14.18,9.42c-1.64-1.32-2.24-3.34-2.45-5.36-.02-.2.09-.17.12-.02.03.19.09.51.14.7.31,1.15.86,2.4,1.57,3.28.36.45.66.68.95,1.06.19.25-.08.55-.32.36Z"/>
    <path class="cls-4" d="M11.9,3.94c-.14.09-.31.1-.43-.02-.12-.12-.09-.34.05-.44.14-.11.33-.08.44.05.11.13.08.32-.06.41Z"/>
    <path class="cls-4" d="M12.2,4.7c.07-.05.17-.02.22.05.05.07.03.16-.04.22-.07.06-.16.03-.21-.04-.05-.07-.05-.18.02-.23Z"/>
    <path class="cls-4" d="M12.08,4.13c.08-.04.16-.02.2.06.04.08,0,.16-.07.21s-.15.02-.18-.05c-.04-.07-.02-.17.06-.22Z"/>
    <path class="cls-4" d="M12.4,5.29c.07-.06.16-.05.22.02.06.07.06.16,0,.22-.07.06-.16.05-.22-.01-.06-.07-.06-.17,0-.23Z"/>
    <path class="cls-4" d="M12.84,6.37c.04-.09.13-.12.21-.07.08.05.09.15.05.22-.04.08-.11.18-.2.12-.09-.06-.09-.18-.06-.27Z"/>
    <path class="cls-4" d="M12.61,5.85c.05-.07.13-.1.2-.05.07.05.08.14.03.21-.04.07-.13.11-.2.05-.07-.05-.08-.15-.03-.22Z"/>
    <path class="cls-4" d="M11.5,4.84c.07-.05.16-.02.19.06.03.08.02.18-.06.22-.08.04-.16.01-.2-.07-.04-.08,0-.17.07-.21Z"/>
    <path class="cls-4" d="M11.45,4.26c.07-.05.15-.05.18.03.04.08.02.18-.05.23-.07.05-.14.03-.19-.05-.04-.07-.02-.16.05-.21Z"/>
    <path class="cls-4" d="M11.58,5.48c.07-.05.17-.03.22.04.05.08.04.17-.04.23-.08.05-.17.03-.22-.05-.05-.07-.03-.17.04-.22Z"/>
    <path class="cls-4" d="M11.93,6.62c.08-.04.17.02.22.1.04.07.05.2-.04.22s-.2-.05-.24-.12-.02-.16.07-.19Z"/>
    <path class="cls-4" d="M11.74,6.1c.06-.06.15-.05.21.01.06.06.06.16,0,.22-.07.06-.16.04-.22-.02-.06-.06-.05-.16.02-.21Z"/>
  </g>
</svg>